<?xml version="1.0" encoding="utf-8"?>
<!-- Generator: Adobe Illustrator 19.1.0, SVG Export Plug-In . SVG Version: 6.00 Build 0)  -->
<svg version="1.1" id="Layer_1" xmlns="http://www.w3.org/2000/svg" xmlns:xlink="http://www.w3.org/1999/xlink" x="0px" y="0px"
	 viewBox="348 -116.5 676 786.1" style="enable-background:new 348 -116.5 676 786.1;" xml:space="preserve">
<style type="text/css">
	.st0{fill:#E2393E;}
	.st1{fill:#FFFFFF;}
</style>
<g>
	<g>
		
			<image style="overflow:visible;opacity:0.75;enable-background:new    ;" width="728" height="808" xlink:href="375B781C.png"  transform="matrix(1 0 0 0.9988 322 -116.5272)">
		</image>
		<g>
			<path class="st0" d="M372.2,132.4c0-16.5,11.7-36.8,26-45L652.8-59.9c14.3-8.3,37.6-8.3,51.9,0L959.3,87.4
				c14.3,8.3,26,28.5,26,45v294.8c0,16.5-11.7,36.8-26,45L704.7,619.5c-14.3,8.3-37.6,8.3-51.9,0L398.2,472.2
				c-14.3-8.3-26-28.5-26-45V132.4z"/>
		</g>
	</g>
	<g>
		<g>
			<path class="st1" d="M538.8,307h-25.4l-8.2-26.5h-40.5l-8.1,26.5h-25.4l39.3-111.8h28.9L538.8,307z M499.6,260.6L487,219.9
				c-1-3.4-1.6-5.8-2-7.5c-1.7,6.4-6.5,22.5-14.4,48.2H499.6z"/>
			<path class="st1" d="M581.1,287.5h45.2V307h-68.8V195.6h23.6V287.5z"/>
			<path class="st1" d="M714.4,214.9h-40.5v24.5h37.6v19.3h-37.6v28.7h40.5v19.5h-64.1V195.6h64.1V214.9z"/>
			<path class="st1" d="M742.3,195.6h32.4c15.1,0,26.3,2.7,33.6,8.2s10.9,13.9,10.9,25.1c0,6.6-1.8,12.4-5.4,17.5
				c-3.6,5.1-8.7,9.1-15.3,12c17.9,26.7,28.8,42.9,32.8,48.5h-26.2l-26.6-42.7h-12.6v42.7h-23.6L742.3,195.6L742.3,195.6z
				 M765.9,214.9V245h7.6c7.5,0,13-1.2,16.5-3.7c3.6-2.5,5.3-6.4,5.3-11.7c0-5.3-1.8-9.1-5.4-11.3c-3.6-2.3-9.2-3.4-16.9-3.4H765.9z
				"/>
			<path class="st1" d="M923.2,215.3H893V307h-23.6v-91.7h-30.2v-19.7h84.1L923.2,215.3L923.2,215.3z"/>
			<path class="st1" d="M463.2,338.9h-13.6v9.6h12.6v6.5h-12.6v14.8h-7.8v-37.3h21.4V338.9z"/>
			<path class="st1" d="M503.5,369.7H495l-2.7-8.9h-13.6l-2.7,8.9h-8.5l13.2-37.5h9.7L503.5,369.7z M490.4,354.2l-4.2-13.7
				c-0.3-1.1-0.5-2-0.7-2.5c-0.6,2.2-2.2,7.5-4.8,16.2H490.4z"/>
			<path class="st1" d="M549.7,369.7h-7.4V352c0-1.2,0-2.1,0-2.8c0-0.7,0.1-3.6,0.4-8.7h-0.2l-9.6,29.2h-7.3l-9-29.3h-0.2
				c0.3,5.8,0.5,9.8,0.5,11.9v17.4h-7.1v-37.3h10.8l8.8,28.5h0.2l9.4-28.5h10.8v37.3H549.7z"/>
			<path class="st1" d="M568.5,369.7h-7.9v-37.3h7.9V369.7z"/>
			<path class="st1" d="M587.4,363.2h15.1v6.5h-23.1v-37.3h7.9L587.4,363.2L587.4,363.2z"/>
			<path class="st1" d="M626.2,369.7h-7.9v-14.3l-12.4-23.1h8.6l7.7,15.4l7.8-15.4h8.5l-12.4,22.8v14.6H626.2z"/>
			<path class="st1" d="M699.9,369.7h-7.4V352c0-1.2,0-2.1,0-2.8c0-0.7,0.1-3.6,0.4-8.7h-0.2l-9.6,29.2h-7.3l-9-29.3h-0.2
				c0.3,5.8,0.5,9.8,0.5,11.9v17.4H660v-37.3h10.8l8.8,28.5h0.2l9.4-28.5H700L699.9,369.7L699.9,369.7z"/>
			<path class="st1" d="M732.3,338.9h-13.6v8.2h12.6v6.5h-12.6v9.6h13.6v6.5h-21.5v-37.3h21.5V338.9z"/>
			<path class="st1" d="M781.6,369.7h-7.4V352c0-1.2,0-2.1,0-2.8c0-0.7,0.1-3.6,0.4-8.7h-0.2l-9.6,29.2h-7.3l-9-29.3h-0.2
				c0.3,5.8,0.5,9.8,0.5,11.9v17.4h-7.1v-37.3h10.8l8.8,28.5h0.2l9.4-28.5h10.8v37.3H781.6z"/>
			<path class="st1" d="M792.5,332.4h11.6c5.3,0,9.1,0.8,11.5,2.3s3.6,3.9,3.6,7.2c0,2.2-0.5,4-1.6,5.5c-1.1,1.4-2.4,2.3-4.2,2.6
				v0.3c2.3,0.5,4,1.5,5.1,2.9c1.1,1.4,1.6,3.4,1.6,5.8c0,3.4-1.2,6.1-3.7,8s-5.8,2.9-10,2.9h-14v-37.5H792.5z M800.5,338.9v8.3h4.6
				c2.2,0,3.7-0.3,4.7-1s1.4-1.7,1.4-3.2s-0.5-2.5-1.6-3.2c-1-0.6-2.7-0.9-5-0.9L800.5,338.9L800.5,338.9z M800.5,353.4v9.7h5.2
				c2.2,0,3.8-0.4,4.8-1.3s1.6-2.1,1.6-3.8c0-3.1-2.2-4.6-6.6-4.6L800.5,353.4L800.5,353.4z"/>
			<path class="st1" d="M850.7,338.9h-13.6v8.2h12.6v6.5h-12.6v9.6h13.6v6.5h-21.5v-37.3h21.5V338.9z"/>
			<path class="st1" d="M860.1,332.4H871c5.1,0,8.8,0.9,11.2,2.8c2.4,1.8,3.7,4.6,3.7,8.4c0,2.2-0.6,4.1-1.8,5.9
				c-1.2,1.7-2.9,3.1-5.1,4c6,9,9.7,14.4,11,16.3h-8.8l-8.9-14.3H868v14.3h-7.9V332.4z M868,338.9V349h2.6c2.5,0,4.3-0.4,5.5-1.3
				s1.8-2.1,1.8-3.9s-0.6-3-1.8-3.8s-3.1-1.1-5.7-1.1L868,338.9L868,338.9z"/>
			<path class="st1" d="M893.9,360.6c2.6,1.1,4.7,1.9,6.5,2.4c1.7,0.5,3.4,0.7,5,0.7s2.8-0.3,3.8-1c0.9-0.7,1.4-1.7,1.4-3
				c0-0.7-0.2-1.4-0.6-1.9s-1-1.1-1.8-1.7c-0.8-0.6-2.4-1.4-4.8-2.5c-2.4-1.1-4.1-2.2-5.2-3.1c-2.5-2.2-3.8-4.9-3.8-8.1
				s1.1-5.8,3.3-7.7c2.2-1.9,5.3-2.8,9.3-2.8c3.3,0,7,0.9,11.1,2.6l-2.6,6.2c-1.9-0.8-3.5-1.3-4.9-1.7c-1.3-0.3-2.7-0.5-4-0.5
				s-2.5,0.3-3.3,1s-1.2,1.6-1.2,2.7c0,0.7,0.2,1.3,0.5,1.8s0.8,1,1.5,1.5s2.4,1.4,5,2.6c3.5,1.7,5.9,3.3,7.1,5c1.3,1.6,2,3.7,2,6.2
				c0,3.3-1.2,6-3.7,8c-2.4,1.9-5.7,2.9-9.9,2.9s-7.8-0.7-10.8-2.2v-7.4H893.9z"/>
		</g>
		<g>
			<path class="st1" d="M538.8,307h-25.4l-8.2-26.5h-40.5l-8.1,26.5h-25.4l39.3-111.8h28.9L538.8,307z M499.6,260.6L487,219.9
				c-1-3.4-1.6-5.8-2-7.5c-1.7,6.4-6.5,22.5-14.4,48.2H499.6z"/>
			<path class="st1" d="M581.1,287.5h45.2V307h-68.8V195.6h23.6V287.5z"/>
			<path class="st1" d="M714.4,214.9h-40.5v24.5h37.6v19.3h-37.6v28.7h40.5v19.5h-64.1V195.6h64.1V214.9z"/>
			<path class="st1" d="M742.3,195.6h32.4c15.1,0,26.3,2.7,33.6,8.2s10.9,13.9,10.9,25.1c0,6.6-1.8,12.4-5.4,17.5
				c-3.6,5.1-8.7,9.1-15.3,12c17.9,26.7,28.8,42.9,32.8,48.5h-26.2l-26.6-42.7h-12.6v42.7h-23.6L742.3,195.6L742.3,195.6z
				 M765.9,214.9V245h7.6c7.5,0,13-1.2,16.5-3.7c3.6-2.5,5.3-6.4,5.3-11.7c0-5.3-1.8-9.1-5.4-11.3c-3.6-2.3-9.2-3.4-16.9-3.4H765.9z
				"/>
			<path class="st1" d="M923.2,215.3H893V307h-23.6v-91.7h-30.2v-19.7h84.1L923.2,215.3L923.2,215.3z"/>
			<path class="st1" d="M463.2,338.9h-13.6v9.6h12.6v6.5h-12.6v14.8h-7.8v-37.3h21.4V338.9z"/>
			<path class="st1" d="M503.5,369.7H495l-2.7-8.9h-13.6l-2.7,8.9h-8.5l13.2-37.5h9.7L503.5,369.7z M490.4,354.2l-4.2-13.7
				c-0.3-1.1-0.5-2-0.7-2.5c-0.6,2.2-2.2,7.5-4.8,16.2H490.4z"/>
			<path class="st1" d="M549.7,369.7h-7.4V352c0-1.2,0-2.1,0-2.8c0-0.7,0.1-3.6,0.4-8.7h-0.2l-9.6,29.2h-7.3l-9-29.3h-0.2
				c0.3,5.8,0.5,9.8,0.5,11.9v17.4h-7.1v-37.3h10.8l8.8,28.5h0.2l9.4-28.5h10.8v37.3H549.7z"/>
			<path class="st1" d="M568.5,369.7h-7.9v-37.3h7.9V369.7z"/>
			<path class="st1" d="M587.4,363.2h15.1v6.5h-23.1v-37.3h7.9L587.4,363.2L587.4,363.2z"/>
			<path class="st1" d="M626.2,369.7h-7.9v-14.3l-12.4-23.1h8.6l7.7,15.4l7.8-15.4h8.5l-12.4,22.8v14.6H626.2z"/>
			<path class="st1" d="M699.9,369.7h-7.4V352c0-1.2,0-2.1,0-2.8c0-0.7,0.1-3.6,0.4-8.7h-0.2l-9.6,29.2h-7.3l-9-29.3h-0.2
				c0.3,5.8,0.5,9.8,0.5,11.9v17.4H660v-37.3h10.8l8.8,28.5h0.2l9.4-28.5H700L699.9,369.7L699.9,369.7z"/>
			<path class="st1" d="M732.3,338.9h-13.6v8.2h12.6v6.5h-12.6v9.6h13.6v6.5h-21.5v-37.3h21.5V338.9z"/>
			<path class="st1" d="M781.6,369.7h-7.4V352c0-1.2,0-2.1,0-2.8c0-0.7,0.1-3.6,0.4-8.7h-0.2l-9.6,29.2h-7.3l-9-29.3h-0.2
				c0.3,5.8,0.5,9.8,0.5,11.9v17.4h-7.1v-37.3h10.8l8.8,28.5h0.2l9.4-28.5h10.8v37.3H781.6z"/>
			<path class="st1" d="M792.5,332.4h11.6c5.3,0,9.1,0.8,11.5,2.3s3.6,3.9,3.6,7.2c0,2.2-0.5,4-1.6,5.5c-1.1,1.4-2.4,2.3-4.2,2.6
				v0.3c2.3,0.5,4,1.5,5.1,2.9c1.1,1.4,1.6,3.4,1.6,5.8c0,3.4-1.2,6.1-3.7,8s-5.8,2.9-10,2.9h-14v-37.5H792.5z M800.5,338.9v8.3h4.6
				c2.2,0,3.7-0.3,4.7-1s1.4-1.7,1.4-3.2s-0.5-2.5-1.6-3.2c-1-0.6-2.7-0.9-5-0.9L800.5,338.9L800.5,338.9z M800.5,353.4v9.7h5.2
				c2.2,0,3.8-0.4,4.8-1.3s1.6-2.1,1.6-3.8c0-3.1-2.2-4.6-6.6-4.6L800.5,353.4L800.5,353.4z"/>
			<path class="st1" d="M850.7,338.9h-13.6v8.2h12.6v6.5h-12.6v9.6h13.6v6.5h-21.5v-37.3h21.5V338.9z"/>
			<path class="st1" d="M860.1,332.4H871c5.1,0,8.8,0.9,11.2,2.8c2.4,1.8,3.7,4.6,3.7,8.4c0,2.2-0.6,4.1-1.8,5.9
				c-1.2,1.7-2.9,3.1-5.1,4c6,9,9.7,14.4,11,16.3h-8.8l-8.9-14.3H868v14.3h-7.9V332.4z M868,338.9V349h2.6c2.5,0,4.3-0.4,5.5-1.3
				s1.8-2.1,1.8-3.9s-0.6-3-1.8-3.8s-3.1-1.1-5.7-1.1L868,338.9L868,338.9z"/>
			<path class="st1" d="M893.9,360.6c2.6,1.1,4.7,1.9,6.5,2.4c1.7,0.5,3.4,0.7,5,0.7s2.8-0.3,3.8-1c0.9-0.7,1.4-1.7,1.4-3
				c0-0.7-0.2-1.4-0.6-1.9s-1-1.1-1.8-1.7c-0.8-0.6-2.4-1.4-4.8-2.5c-2.4-1.1-4.1-2.2-5.2-3.1c-2.5-2.2-3.8-4.9-3.8-8.1
				s1.1-5.8,3.3-7.7c2.2-1.9,5.3-2.8,9.3-2.8c3.3,0,7,0.9,11.1,2.6l-2.6,6.2c-1.9-0.8-3.5-1.3-4.9-1.7c-1.3-0.3-2.7-0.5-4-0.5
				s-2.5,0.3-3.3,1s-1.2,1.6-1.2,2.7c0,0.7,0.2,1.3,0.5,1.8s0.8,1,1.5,1.5s2.4,1.4,5,2.6c3.5,1.7,5.9,3.3,7.1,5c1.3,1.6,2,3.7,2,6.2
				c0,3.3-1.2,6-3.7,8c-2.4,1.9-5.7,2.9-9.9,2.9s-7.8-0.7-10.8-2.2v-7.4H893.9z"/>
		</g>
		<g>
			<path class="st1" d="M538.8,307h-25.4l-8.2-26.5h-40.5l-8.1,26.5h-25.4l39.3-111.8h28.9L538.8,307z M499.6,260.6L487,219.9
				c-1-3.4-1.6-5.8-2-7.5c-1.7,6.4-6.5,22.5-14.4,48.2H499.6z"/>
			<path class="st1" d="M581.1,287.5h45.2V307h-68.8V195.6h23.6V287.5z"/>
			<path class="st1" d="M714.4,214.9h-40.5v24.5h37.6v19.3h-37.6v28.7h40.5v19.5h-64.1V195.6h64.1V214.9z"/>
			<path class="st1" d="M742.3,195.6h32.4c15.1,0,26.3,2.7,33.6,8.2s10.9,13.9,10.9,25.1c0,6.6-1.8,12.4-5.4,17.5
				c-3.6,5.1-8.7,9.1-15.3,12c17.9,26.7,28.8,42.9,32.8,48.5h-26.2l-26.6-42.7h-12.6v42.7h-23.6L742.3,195.6L742.3,195.6z
				 M765.9,214.9V245h7.6c7.5,0,13-1.2,16.5-3.7c3.6-2.5,5.3-6.4,5.3-11.7c0-5.3-1.8-9.1-5.4-11.3c-3.6-2.3-9.2-3.4-16.9-3.4H765.9z
				"/>
			<path class="st1" d="M923.2,215.3H893V307h-23.6v-91.7h-30.2v-19.7h84.1L923.2,215.3L923.2,215.3z"/>
			<path class="st1" d="M463.2,338.9h-13.6v9.6h12.6v6.5h-12.6v14.8h-7.8v-37.3h21.4V338.9z"/>
			<path class="st1" d="M503.5,369.7H495l-2.7-8.9h-13.6l-2.7,8.9h-8.5l13.2-37.5h9.7L503.5,369.7z M490.4,354.2l-4.2-13.7
				c-0.3-1.1-0.5-2-0.7-2.5c-0.6,2.2-2.2,7.5-4.8,16.2H490.4z"/>
			<path class="st1" d="M549.7,369.7h-7.4V352c0-1.2,0-2.1,0-2.8c0-0.7,0.1-3.6,0.4-8.7h-0.2l-9.6,29.2h-7.3l-9-29.3h-0.2
				c0.3,5.8,0.5,9.8,0.5,11.9v17.4h-7.1v-37.3h10.8l8.8,28.5h0.2l9.4-28.5h10.8v37.3H549.7z"/>
			<path class="st1" d="M568.5,369.7h-7.9v-37.3h7.9V369.7z"/>
			<path class="st1" d="M587.4,363.2h15.1v6.5h-23.1v-37.3h7.9L587.4,363.2L587.4,363.2z"/>
			<path class="st1" d="M626.2,369.7h-7.9v-14.3l-12.4-23.1h8.6l7.7,15.4l7.8-15.4h8.5l-12.4,22.8v14.6H626.2z"/>
			<path class="st1" d="M699.9,369.7h-7.4V352c0-1.2,0-2.1,0-2.8c0-0.7,0.1-3.6,0.4-8.7h-0.2l-9.6,29.2h-7.3l-9-29.3h-0.2
				c0.3,5.8,0.5,9.8,0.5,11.9v17.4H660v-37.3h10.8l8.8,28.5h0.2l9.4-28.5H700L699.9,369.7L699.9,369.7z"/>
			<path class="st1" d="M732.3,338.9h-13.6v8.2h12.6v6.5h-12.6v9.6h13.6v6.5h-21.5v-37.3h21.5V338.9z"/>
			<path class="st1" d="M781.6,369.7h-7.4V352c0-1.2,0-2.1,0-2.8c0-0.7,0.1-3.6,0.4-8.7h-0.2l-9.6,29.2h-7.3l-9-29.3h-0.2
				c0.3,5.8,0.5,9.8,0.5,11.9v17.4h-7.1v-37.3h10.8l8.8,28.5h0.2l9.4-28.5h10.8v37.3H781.6z"/>
			<path class="st1" d="M792.5,332.4h11.6c5.3,0,9.1,0.8,11.5,2.3s3.6,3.9,3.6,7.2c0,2.2-0.5,4-1.6,5.5c-1.1,1.4-2.4,2.3-4.2,2.6
				v0.3c2.3,0.5,4,1.5,5.1,2.9c1.1,1.4,1.6,3.4,1.6,5.8c0,3.4-1.2,6.1-3.7,8s-5.8,2.9-10,2.9h-14v-37.5H792.5z M800.5,338.9v8.3h4.6
				c2.2,0,3.7-0.3,4.7-1s1.4-1.7,1.4-3.2s-0.5-2.5-1.6-3.2c-1-0.6-2.7-0.9-5-0.9L800.5,338.9L800.5,338.9z M800.5,353.4v9.7h5.2
				c2.2,0,3.8-0.4,4.8-1.3s1.6-2.1,1.6-3.8c0-3.1-2.2-4.6-6.6-4.6L800.5,353.4L800.5,353.4z"/>
			<path class="st1" d="M850.7,338.9h-13.6v8.2h12.6v6.5h-12.6v9.6h13.6v6.5h-21.5v-37.3h21.5V338.9z"/>
			<path class="st1" d="M860.1,332.4H871c5.1,0,8.8,0.9,11.2,2.8c2.4,1.8,3.7,4.6,3.7,8.4c0,2.2-0.6,4.1-1.8,5.9
				c-1.2,1.7-2.9,3.1-5.1,4c6,9,9.7,14.4,11,16.3h-8.8l-8.9-14.3H868v14.3h-7.9V332.4z M868,338.9V349h2.6c2.5,0,4.3-0.4,5.5-1.3
				s1.8-2.1,1.8-3.9s-0.6-3-1.8-3.8s-3.1-1.1-5.7-1.1L868,338.9L868,338.9z"/>
			<path class="st1" d="M893.9,360.6c2.6,1.1,4.7,1.9,6.5,2.4c1.7,0.5,3.4,0.7,5,0.7s2.8-0.3,3.8-1c0.9-0.7,1.4-1.7,1.4-3
				c0-0.7-0.2-1.4-0.6-1.9s-1-1.1-1.8-1.7c-0.8-0.6-2.4-1.4-4.8-2.5c-2.4-1.1-4.1-2.2-5.2-3.1c-2.5-2.2-3.8-4.9-3.8-8.1
				s1.1-5.8,3.3-7.7c2.2-1.9,5.3-2.8,9.3-2.8c3.3,0,7,0.9,11.1,2.6l-2.6,6.2c-1.9-0.8-3.5-1.3-4.9-1.7c-1.3-0.3-2.7-0.5-4-0.5
				s-2.5,0.3-3.3,1s-1.2,1.6-1.2,2.7c0,0.7,0.2,1.3,0.5,1.8s0.8,1,1.5,1.5s2.4,1.4,5,2.6c3.5,1.7,5.9,3.3,7.1,5c1.3,1.6,2,3.7,2,6.2
				c0,3.3-1.2,6-3.7,8c-2.4,1.9-5.7,2.9-9.9,2.9s-7.8-0.7-10.8-2.2v-7.4H893.9z"/>
		</g>
	</g>
</g>
</svg>
