<?xml version="1.0" encoding="utf-8"?>
<!-- Generator: Adobe Illustrator 19.1.0, SVG Export Plug-In . SVG Version: 6.00 Build 0)  -->
<svg version="1.1" id="Layer_1" xmlns="http://www.w3.org/2000/svg" xmlns:xlink="http://www.w3.org/1999/xlink" x="0px" y="0px"
	 viewBox="0 0 110.2 101.8" style="enable-background:new 0 0 110.2 101.8;" xml:space="preserve">
<style type="text/css">
	.st0{opacity:0.6;fill:#E2393E;}
	.st1{fill:#FFFFFF;}
</style>
<rect x="274.9" y="976.7" class="st0" width="480" height="218"/>
<g>
	<g>
		<g>
			<path class="st1" d="M461.3,1107.4c-5.7,0-10.1-1.7-13.1-5.2c-3-3.5-4.5-8.4-4.5-14.9c0-0.1,0-0.2,0-0.3c0-3.9,0.7-7.4,2.2-10.5
				c1.5-3.1,3.6-5.4,6.4-7c2.8-1.6,5.9-2.5,9.5-2.5c0.1,0,0.2,0,0.3,0c3.8,0,7.7,0.9,11.5,2.8l-2.7,6.8c-3.6-1.7-6.6-2.6-8.8-2.6
				c-3.1,0-5.6,1.2-7.3,3.5c-1.7,2.4-2.6,5.6-2.6,9.8c0,8.8,3.3,13.1,9.9,13.1c2.7,0,6.1-0.7,10-2.1v7
				C468.8,1106.7,465.2,1107.4,461.3,1107.4z"/>
			<path class="st1" d="M494.5,1076.3c2.8,0,5.2,0.6,7.4,1.9c2.2,1.2,3.9,3,5,5.4c1.2,2.3,1.8,5,1.8,8c0,0.1,0,0.2,0,0.3
				c0,4.9-1.3,8.7-3.9,11.5s-6.2,4.1-10.8,4.1c-0.1,0-0.2,0-0.2,0c-2.8,0-5.2-0.6-7.4-1.9c-2.2-1.3-3.9-3.1-5-5.4s-1.8-5-1.8-8
				c0-0.1,0-0.2,0-0.3c0-4.9,1.3-8.7,3.8-11.4c2.6-2.7,6.2-4.1,10.8-4.1C494.3,1076.3,494.4,1076.3,494.5,1076.3z M498.8,1085.1
				c-1-1.5-2.6-2.2-4.7-2.2s-3.7,0.7-4.7,2.2c-1,1.5-1.5,3.7-1.5,6.7c0,3,0.5,5.3,1.5,6.8c1,1.5,2.6,2.2,4.7,2.2s3.7-0.7,4.7-2.2
				c1-1.5,1.5-3.7,1.5-6.8C500.3,1088.8,499.8,1086.5,498.8,1085.1z"/>
			<path class="st1" d="M534.2,1076.3c3.5,0,6.1,0.9,7.9,2.8c1.8,1.9,2.7,4.6,2.7,8.2v19.6h-8.2v-17.5c0-2.2-0.4-3.8-1.2-4.9
				c-0.8-1.1-2-1.6-3.7-1.6c-2.3,0-3.9,0.8-5,2.3c-1,1.5-1.5,4.1-1.5,7.6v14.1h-8.2v-30h6.3l1.1,3.9h0.5c0.9-1.5,2.1-2.6,3.7-3.3
				C530.3,1076.7,532.1,1076.3,534.2,1076.3z"/>
			<path class="st1" d="M564,1076.9h8.4v6.1H564v14.5c0,1.1,0.3,2,1,2.6c0.6,0.6,1.6,0.9,2.8,0.9c1.3,0,2.9-0.3,4.9-0.9v6.1
				c-2,0.9-4.6,1.4-7.7,1.4s-5.4-0.8-6.9-2.5c-1.5-1.6-2.3-4.1-2.3-7.5V1083h-3.9v-3.5l4.5-2.7l2.4-6.3h5.2V1076.9z"/>
			<path class="st1" d="M581.3,1078.9c3.5-1.8,7.3-2.7,11.4-2.7c4.1,0,7.3,0.9,9.4,2.7c2.1,1.8,3.2,4.4,3.2,8v20h-5.7l-1.6-4.1h-0.2
				c-1.4,1.8-2.8,3-4.2,3.6c-1.5,0.7-3.4,1-5.7,1c-2.9,0-5.1-0.8-6.8-2.5c-1.6-1.6-2.5-4-2.5-7.1c0-3.1,1.1-5.4,3.3-6.9
				c2.2-1.5,5.6-2.4,10.1-2.5l5.2-0.2v-1.3c0-3-1.6-4.6-4.7-4.6c-2.4,0-5.2,0.7-8.5,2.2L581.3,1078.9z M586.9,1098
				c0,2.3,1.3,3.5,4,3.5c1.9,0,3.4-0.5,4.6-1.6c1.1-1.1,1.7-2.5,1.7-4.4v-2.5l-3.2,0.1c-2.4,0.1-4.2,0.5-5.3,1.3
				S586.9,1096.3,586.9,1098z"/>
			<path class="st1" d="M627.5,1107.4c-9.3,0-14-5.1-14-15.4c0-5.1,1.3-9,3.8-11.7s6.2-4.1,10.9-4.1c3.5,0,6.6,0.7,9.3,2l-2.4,6.3
				c-2.9-1.2-5.2-1.8-6.9-1.8c-4.3,0-6.4,3-6.4,8.9s2.1,8.9,6.4,8.9c3,0,5.8-0.9,8.4-2.6v7c-1.4,0.9-2.7,1.5-4,1.7
				C631.3,1107.3,629.6,1107.4,627.5,1107.4z"/>
			<path class="st1" d="M654.3,1076.9h8.4v6.1h-8.4v14.5c0,1.1,0.3,2,1,2.6c0.6,0.6,1.6,0.9,2.8,0.9c1.3,0,2.9-0.3,4.9-0.9v6.1
				c-2,0.9-4.6,1.4-7.7,1.4s-5.4-0.8-6.9-2.5c-1.5-1.6-2.3-4.1-2.3-7.5V1083h-3.9v-3.5l4.5-2.7l2.4-6.3h5.2V1076.9z"/>
			<path class="st1" d="M679.2,1101.4c3,0,4.5-0.9,4.5-2.6c0-0.9-0.4-1.6-1.2-2.1c-0.8-0.5-2.6-1.4-5.3-2.6c-2.3-1-4-1.9-5.1-2.7
				c-1.1-0.8-1.9-1.8-2.3-2.8s-0.7-2.4-0.7-3.9c0-2.7,1-4.7,3.1-6.2c2.1-1.5,5-2.2,8.7-2.2c3.7,0,7.3,0.8,10.7,2.4l-2.5,5.9
				c-1.7-0.7-3.2-1.3-4.5-1.7s-2.5-0.6-3.7-0.6c-2.4,0-3.6,0.7-3.6,2c0,0.7,0.4,1.4,1.2,1.9c0.8,0.5,2.4,1.3,4.9,2.3
				c2.5,1,4.3,1.9,5.4,2.7c2.1,1.6,3.2,3.9,3.2,6.9c0,3-1.1,5.3-3.2,6.9c-2.1,1.6-5.3,2.4-9.3,2.4c-4.1,0-7.5-0.6-10.2-1.7v-6.8
				c1.5,0.7,3.3,1.3,5.2,1.8C676.1,1101.2,677.7,1101.4,679.2,1101.4z"/>
		</g>
		<g>
			<path class="st1" d="M461.3,1107.4c-5.7,0-10.1-1.7-13.1-5.2c-3-3.5-4.5-8.4-4.5-14.9c0-0.1,0-0.2,0-0.3c0-3.9,0.7-7.4,2.2-10.5
				c1.5-3.1,3.6-5.4,6.4-7c2.8-1.6,5.9-2.5,9.5-2.5c0.1,0,0.2,0,0.3,0c3.8,0,7.7,0.9,11.5,2.8l-2.7,6.8c-3.6-1.7-6.6-2.6-8.8-2.6
				c-3.1,0-5.6,1.2-7.3,3.5c-1.7,2.4-2.6,5.6-2.6,9.8c0,8.8,3.3,13.1,9.9,13.1c2.7,0,6.1-0.7,10-2.1v7
				C468.8,1106.7,465.2,1107.4,461.3,1107.4z"/>
			<path class="st1" d="M494.5,1076.3c2.8,0,5.2,0.6,7.4,1.9c2.2,1.2,3.9,3,5,5.4c1.2,2.3,1.8,5,1.8,8c0,0.1,0,0.2,0,0.3
				c0,4.9-1.3,8.7-3.9,11.5s-6.2,4.1-10.8,4.1c-0.1,0-0.2,0-0.2,0c-2.8,0-5.2-0.6-7.4-1.9c-2.2-1.3-3.9-3.1-5-5.4s-1.8-5-1.8-8
				c0-0.1,0-0.2,0-0.3c0-4.9,1.3-8.7,3.8-11.4c2.6-2.7,6.2-4.1,10.8-4.1C494.3,1076.3,494.4,1076.3,494.5,1076.3z M498.8,1085.1
				c-1-1.5-2.6-2.2-4.7-2.2s-3.7,0.7-4.7,2.2c-1,1.5-1.5,3.7-1.5,6.7c0,3,0.5,5.3,1.5,6.8c1,1.5,2.6,2.2,4.7,2.2s3.7-0.7,4.7-2.2
				c1-1.5,1.5-3.7,1.5-6.8C500.3,1088.8,499.8,1086.5,498.8,1085.1z"/>
			<path class="st1" d="M534.2,1076.3c3.5,0,6.1,0.9,7.9,2.8c1.8,1.9,2.7,4.6,2.7,8.2v19.6h-8.2v-17.5c0-2.2-0.4-3.8-1.2-4.9
				c-0.8-1.1-2-1.6-3.7-1.6c-2.3,0-3.9,0.8-5,2.3c-1,1.5-1.5,4.1-1.5,7.6v14.1h-8.2v-30h6.3l1.1,3.9h0.5c0.9-1.5,2.1-2.6,3.7-3.3
				C530.3,1076.7,532.1,1076.3,534.2,1076.3z"/>
			<path class="st1" d="M564,1076.9h8.4v6.1H564v14.5c0,1.1,0.3,2,1,2.6c0.6,0.6,1.6,0.9,2.8,0.9c1.3,0,2.9-0.3,4.9-0.9v6.1
				c-2,0.9-4.6,1.4-7.7,1.4s-5.4-0.8-6.9-2.5c-1.5-1.6-2.3-4.1-2.3-7.5V1083h-3.9v-3.5l4.5-2.7l2.4-6.3h5.2V1076.9z"/>
			<path class="st1" d="M581.3,1078.9c3.5-1.8,7.3-2.7,11.4-2.7c4.1,0,7.3,0.9,9.4,2.7c2.1,1.8,3.2,4.4,3.2,8v20h-5.7l-1.6-4.1h-0.2
				c-1.4,1.8-2.8,3-4.2,3.6c-1.5,0.7-3.4,1-5.7,1c-2.9,0-5.1-0.8-6.8-2.5c-1.6-1.6-2.5-4-2.5-7.1c0-3.1,1.1-5.4,3.3-6.9
				c2.2-1.5,5.6-2.4,10.1-2.5l5.2-0.2v-1.3c0-3-1.6-4.6-4.7-4.6c-2.4,0-5.2,0.7-8.5,2.2L581.3,1078.9z M586.9,1098
				c0,2.3,1.3,3.5,4,3.5c1.9,0,3.4-0.5,4.6-1.6c1.1-1.1,1.7-2.5,1.7-4.4v-2.5l-3.2,0.1c-2.4,0.1-4.2,0.5-5.3,1.3
				S586.9,1096.3,586.9,1098z"/>
			<path class="st1" d="M627.5,1107.4c-9.3,0-14-5.1-14-15.4c0-5.1,1.3-9,3.8-11.7s6.2-4.1,10.9-4.1c3.5,0,6.6,0.7,9.3,2l-2.4,6.3
				c-2.9-1.2-5.2-1.8-6.9-1.8c-4.3,0-6.4,3-6.4,8.9s2.1,8.9,6.4,8.9c3,0,5.8-0.9,8.4-2.6v7c-1.4,0.9-2.7,1.5-4,1.7
				C631.3,1107.3,629.6,1107.4,627.5,1107.4z"/>
			<path class="st1" d="M654.3,1076.9h8.4v6.1h-8.4v14.5c0,1.1,0.3,2,1,2.6c0.6,0.6,1.6,0.9,2.8,0.9c1.3,0,2.9-0.3,4.9-0.9v6.1
				c-2,0.9-4.6,1.4-7.7,1.4s-5.4-0.8-6.9-2.5c-1.5-1.6-2.3-4.1-2.3-7.5V1083h-3.9v-3.5l4.5-2.7l2.4-6.3h5.2V1076.9z"/>
			<path class="st1" d="M679.2,1101.4c3,0,4.5-0.9,4.5-2.6c0-0.9-0.4-1.6-1.2-2.1c-0.8-0.5-2.6-1.4-5.3-2.6c-2.3-1-4-1.9-5.1-2.7
				c-1.1-0.8-1.9-1.8-2.3-2.8s-0.7-2.4-0.7-3.9c0-2.7,1-4.7,3.1-6.2c2.1-1.5,5-2.2,8.7-2.2c3.7,0,7.3,0.8,10.7,2.4l-2.5,5.9
				c-1.7-0.7-3.2-1.3-4.5-1.7s-2.5-0.6-3.7-0.6c-2.4,0-3.6,0.7-3.6,2c0,0.7,0.4,1.4,1.2,1.9c0.8,0.5,2.4,1.3,4.9,2.3
				c2.5,1,4.3,1.9,5.4,2.7c2.1,1.6,3.2,3.9,3.2,6.9c0,3-1.1,5.3-3.2,6.9c-2.1,1.6-5.3,2.4-9.3,2.4c-4.1,0-7.5-0.6-10.2-1.7v-6.8
				c1.5,0.7,3.3,1.3,5.2,1.8C676.1,1101.2,677.7,1101.4,679.2,1101.4z"/>
		</g>
	</g>
	<g>
		<g id="User_5_">
			<g>
				<path class="st1" d="M381,1109c14,0,25.4-13.9,25.4-31c0-17.1-11.4-31-25.4-31c-6.9,0-13.3,3.3-18.1,9.3
					c-4.7,5.8-7.2,13.5-7.2,21.7C355.6,1095.1,367,1109,381,1109z M381,1052.6c10.9,0,19.7,11.4,19.7,25.4c0,14-8.9,25.4-19.7,25.4
					s-19.7-11.4-19.7-25.4C361.3,1064,370.1,1052.6,381,1052.6z M400.7,1103.3c-1.6,0-2.8,1.3-2.8,2.8c0,1.6,1.3,2.8,2.8,2.8
					c10.9,0,19.7,8.9,19.7,19.7c0,1.6-1.3,2.8-2.8,2.8h-73.3c-1.6,0-2.8-1.3-2.8-2.8c0-10.9,8.9-19.7,19.7-19.7
					c1.6,0,2.8-1.3,2.8-2.8c0-1.6-1.3-2.8-2.8-2.8c-14,0-25.4,11.4-25.4,25.4c0,4.7,3.8,8.5,8.5,8.5h73.3c4.7,0,8.5-3.8,8.5-8.5
					C426.1,1114.7,414.7,1103.3,400.7,1103.3z"/>
			</g>
		</g>
	</g>
</g>
<g>
	<g id="User">
		<g>
			<path class="st1" d="M55.5,68.7c14,0,25.4-13.9,25.4-31s-11.4-31-25.4-31c-6.9,0-13.3,3.3-18.1,9.3c-4.7,5.8-7.2,13.5-7.2,21.7
				C30.2,54.8,41.5,68.7,55.5,68.7z M55.5,12.3c10.9,0,19.7,11.4,19.7,25.4c0,14-8.9,25.4-19.7,25.4S35.8,51.7,35.8,37.7
				C35.8,23.7,44.7,12.3,55.5,12.3z M75.3,63c-1.6,0-2.8,1.3-2.8,2.8s1.3,2.8,2.8,2.8c10.9,0,19.7,8.9,19.7,19.7
				c0,1.6-1.3,2.8-2.8,2.8H18.9c-1.6,0-2.8-1.3-2.8-2.8c0-10.9,8.9-19.7,19.7-19.7c1.6,0,2.8-1.3,2.8-2.8S37.4,63,35.8,63
				c-14,0-25.4,11.4-25.4,25.4c0,4.7,3.8,8.5,8.5,8.5h73.3c4.7,0,8.5-3.8,8.5-8.5C100.6,74.4,89.3,63,75.3,63z"/>
		</g>
	</g>
</g>
</svg>
