<?xml version="1.0" encoding="utf-8"?>
<!-- Generator: Adobe Illustrator 19.1.0, SVG Export Plug-In . SVG Version: 6.00 Build 0)  -->
<svg version="1.1" id="Layer_1" xmlns="http://www.w3.org/2000/svg" xmlns:xlink="http://www.w3.org/1999/xlink" x="0px" y="0px"
	 viewBox="0 -159.4 1440 878.4" style="enable-background:new 0 -159.4 1440 878.4;" xml:space="preserve">
<style type="text/css">
	.st0{fill:#3B4351;}
</style>
<image style="overflow:visible;enable-background:new    ;" width="2000" height="1000" xlink:href="39A27400.jpeg"  transform="matrix(0.4965 0 0 0.4965 -1290.8408 -50.93)">
</image>
<g>
	<path class="st0" d="M9.5-159.4c-5.5,0-10,4.5-10,10v858c0,5.5,4.5,10,10,10h1421c5.5,0,10-4.5,10-10v-858c0-5.5-4.5-10-10-10H9.5z
		 M926,305.8c0,5.5-3.9,12.2-8.7,15L728.7,429.3c-4.8,2.7-12.6,2.7-17.3,0L522.7,320.8c-4.8-2.7-8.7-9.5-8.7-15v-217
		c0-5.5,3.9-12.2,8.7-15L711.4-34.7c4.8-2.7,12.6-2.7,17.3,0L917.4,73.8c4.8,2.7,8.7,9.5,8.7,15v217H926z"/>
</g>
<rect y="-159.4" class="st0" width="1444" height="56.8"/>
<rect y="662.2" class="st0" width="1444" height="56.8"/>
</svg>
