<?xml version="1.0" encoding="utf-8"?>
<!-- Generator: Adobe Illustrator 19.1.0, SVG Export Plug-In . SVG Version: 6.00 Build 0)  -->
<svg version="1.1" id="Layer_1" xmlns="http://www.w3.org/2000/svg" xmlns:xlink="http://www.w3.org/1999/xlink" x="0px" y="0px"
	 viewBox="0 0 1440 165" style="enable-background:new 0 0 1440 165;" xml:space="preserve">
<style type="text/css">
	.st0{fill:#E2393E;}
	.st1{fill:#FFFFFF;}
</style>
<rect x="0" y="0" class="st0" width="1440" height="165"/>
<g>
	<path class="st1" d="M437.8,119l25.4-64.5h6.3l25.3,64.5H487l-8-20.5h-25.8l-7.9,20.5H437.8z M455.9,91.8h20.8l-7.5-19.9
		c-1-2.6-2-5.7-3-9.3c-0.6,2.8-1.6,5.8-2.8,9.3L455.9,91.8z"/>
	<path class="st1" d="M498.8,54.8H516l6.9,32.2c1.6,7.3,2.7,13,3.2,17c0.4-3.2,1.1-7.3,2.1-12.2c1-5,1.9-9.2,2.7-12.7l5.6-24.3h16
		L558,79c1.2,4.5,2.2,9.2,3,14.1c0.9,4.9,1.5,8.5,1.9,10.8c0.4-3.5,1.5-9.2,3.1-16.9l7.2-32.3h17.2L574.2,119h-20.5l-6.6-28
		c-0.2-0.8-0.6-2.9-1.3-6.3c-0.6-3.4-1.1-6.5-1.5-9.4c-0.5,4-1.6,10.5-3.5,19.2c-1,4.9-2.8,13-5.2,24.4h-20.5L498.8,54.8z"/>
	<path class="st1" d="M600.6,119V54.8h38.1v14h-20.7v9.9h19.1v14h-19.1v12h20.7V119H600.6z"/>
	<path class="st1" d="M645.8,119l21-64.5h23.2l21.2,64.5h-19l-3.2-12h-20.8l-3.3,12H645.8z M671.7,92.7h13.7l-2.8-10.5
		c-1.9-6.7-3.3-12.4-4.2-17.1c-0.3,1.5-0.8,4-1.6,7.4C676.1,75.8,674.4,82.5,671.7,92.7z"/>
	<path class="st1" d="M720.7,119V54.8h21c17.4,0,26.2,6.3,26.2,19c0,7.4-3.6,13.2-10.9,17.3l18.8,28h-19.7l-13.6-23.4h-4.4V119
		H720.7z M738.2,82.6h3.2c6,0,9.1-2.7,9.1-8c0-4.4-3-6.6-8.9-6.6h-3.4V82.6z"/>
	<path class="st1" d="M786.2,119V54.8h8.4l35,53.7h0.3l-0.4-7.6c-0.1-3-0.2-5.2-0.2-6.5c0-1.3,0-2.2,0-2.7V54.8h6.9V119h-8.4
		l-35.1-53.9h-0.4c0.5,6.1,0.7,11.9,0.7,17.4V119H786.2z"/>
	<path class="st1" d="M856.8,119V54.8h35.8v6.7h-28.3V82h26.6v6.7h-26.6v23.6h28.3v6.7H856.8z"/>
	<path class="st1" d="M905.3,117v-7.2c5.7,2.4,11.6,3.6,17.8,3.6c4.9,0,8.7-0.9,11.2-2.8c2.6-1.9,3.8-4.5,3.8-7.9
		c0-2.2-0.4-4-1.3-5.5c-0.9-1.4-2.4-2.8-4.4-3.9c-2.1-1.2-5.3-2.6-9.6-4.1c-6-2.2-10.3-4.7-12.8-7.7c-2.5-2.9-3.8-6.8-3.8-11.6
		s1.8-8.7,5.5-11.6s8.7-4.4,14.9-4.4s12,1.2,17.4,3.5l-2.3,6.5c-5.3-2.2-10.4-3.3-15.4-3.3c-4,0-7.1,0.9-9.3,2.6
		c-2.2,1.7-3.3,4.1-3.3,7.1c0,2.2,0.4,4,1.2,5.5c0.8,1.4,2.2,2.7,4.1,3.9c1.9,1.2,4.9,2.5,9,4c6.8,2.5,11.5,5.1,13.9,7.8
		c2.5,2.8,3.7,6.3,3.7,10.7c0,5.6-2,10-6.1,13.2c-4.1,3.2-9.8,4.7-17.1,4.7C915.1,119.9,909.4,118.9,905.3,117z"/>
	<path class="st1" d="M957.4,117v-7.2c5.7,2.4,11.6,3.6,17.8,3.6c4.9,0,8.7-0.9,11.2-2.8c2.6-1.9,3.8-4.5,3.8-7.9
		c0-2.2-0.4-4-1.3-5.5c-0.9-1.4-2.4-2.8-4.4-3.9c-2.1-1.2-5.3-2.6-9.6-4.1c-6-2.2-10.3-4.7-12.8-7.7c-2.5-2.9-3.8-6.8-3.8-11.6
		s1.8-8.7,5.5-11.6s8.7-4.4,14.9-4.4s12,1.2,17.4,3.5l-2.3,6.5c-5.3-2.2-10.4-3.3-15.4-3.3c-4,0-7.1,0.9-9.3,2.6
		c-2.2,1.7-3.3,4.1-3.3,7.1c0,2.2,0.4,4,1.2,5.5c0.8,1.4,2.2,2.7,4.1,3.9c1.9,1.2,4.9,2.5,9,4c6.8,2.5,11.5,5.1,13.9,7.8
		c2.5,2.8,3.7,6.3,3.7,10.7c0,5.6-2,10-6.1,13.2c-4.1,3.2-9.8,4.7-17.1,4.7C967.2,119.9,961.5,118.9,957.4,117z"/>
</g>
<g>
	<path class="st1" d="M437.8,119l25.4-64.5h6.3l25.3,64.5H487l-8-20.5h-25.8l-7.9,20.5H437.8z M455.9,91.8h20.8l-7.5-19.9
		c-1-2.6-2-5.7-3-9.3c-0.6,2.8-1.6,5.8-2.8,9.3L455.9,91.8z"/>
	<path class="st1" d="M498.8,54.8H516l6.9,32.2c1.6,7.3,2.7,13,3.2,17c0.4-3.2,1.1-7.3,2.1-12.2c1-5,1.9-9.2,2.7-12.7l5.6-24.3h16
		L558,79c1.2,4.5,2.2,9.2,3,14.1c0.9,4.9,1.5,8.5,1.9,10.8c0.4-3.5,1.5-9.2,3.1-16.9l7.2-32.3h17.2L574.2,119h-20.5l-6.6-28
		c-0.2-0.8-0.6-2.9-1.3-6.3c-0.6-3.4-1.1-6.5-1.5-9.4c-0.5,4-1.6,10.5-3.5,19.2c-1,4.9-2.8,13-5.2,24.4h-20.5L498.8,54.8z"/>
	<path class="st1" d="M600.6,119V54.8h38.1v14h-20.7v9.9h19.1v14h-19.1v12h20.7V119H600.6z"/>
	<path class="st1" d="M645.8,119l21-64.5h23.2l21.2,64.5h-19l-3.2-12h-20.8l-3.3,12H645.8z M671.7,92.7h13.7l-2.8-10.5
		c-1.9-6.7-3.3-12.4-4.2-17.1c-0.3,1.5-0.8,4-1.6,7.4C676.1,75.8,674.4,82.5,671.7,92.7z"/>
	<path class="st1" d="M720.7,119V54.8h21c17.4,0,26.2,6.3,26.2,19c0,7.4-3.6,13.2-10.9,17.3l18.8,28h-19.7l-13.6-23.4h-4.4V119
		H720.7z M738.2,82.6h3.2c6,0,9.1-2.7,9.1-8c0-4.4-3-6.6-8.9-6.6h-3.4V82.6z"/>
	<path class="st1" d="M786.2,119V54.8h8.4l35,53.7h0.3l-0.4-7.6c-0.1-3-0.2-5.2-0.2-6.5c0-1.3,0-2.2,0-2.7V54.8h6.9V119h-8.4
		l-35.1-53.9h-0.4c0.5,6.1,0.7,11.9,0.7,17.4V119H786.2z"/>
	<path class="st1" d="M856.8,119V54.8h35.8v6.7h-28.3V82h26.6v6.7h-26.6v23.6h28.3v6.7H856.8z"/>
	<path class="st1" d="M905.3,117v-7.2c5.7,2.4,11.6,3.6,17.8,3.6c4.9,0,8.7-0.9,11.2-2.8c2.6-1.9,3.8-4.5,3.8-7.9
		c0-2.2-0.4-4-1.3-5.5c-0.9-1.4-2.4-2.8-4.4-3.9c-2.1-1.2-5.3-2.6-9.6-4.1c-6-2.2-10.3-4.7-12.8-7.7c-2.5-2.9-3.8-6.8-3.8-11.6
		s1.8-8.7,5.5-11.6s8.7-4.4,14.9-4.4s12,1.2,17.4,3.5l-2.3,6.5c-5.3-2.2-10.4-3.3-15.4-3.3c-4,0-7.1,0.9-9.3,2.6
		c-2.2,1.7-3.3,4.1-3.3,7.1c0,2.2,0.4,4,1.2,5.5c0.8,1.4,2.2,2.7,4.1,3.9c1.9,1.2,4.9,2.5,9,4c6.8,2.5,11.5,5.1,13.9,7.8
		c2.5,2.8,3.7,6.3,3.7,10.7c0,5.6-2,10-6.1,13.2c-4.1,3.2-9.8,4.7-17.1,4.7C915.1,119.9,909.4,118.9,905.3,117z"/>
	<path class="st1" d="M957.4,117v-7.2c5.7,2.4,11.6,3.6,17.8,3.6c4.9,0,8.7-0.9,11.2-2.8c2.6-1.9,3.8-4.5,3.8-7.9
		c0-2.2-0.4-4-1.3-5.5c-0.9-1.4-2.4-2.8-4.4-3.9c-2.1-1.2-5.3-2.6-9.6-4.1c-6-2.2-10.3-4.7-12.8-7.7c-2.5-2.9-3.8-6.8-3.8-11.6
		s1.8-8.7,5.5-11.6s8.7-4.4,14.9-4.4s12,1.2,17.4,3.5l-2.3,6.5c-5.3-2.2-10.4-3.3-15.4-3.3c-4,0-7.1,0.9-9.3,2.6
		c-2.2,1.7-3.3,4.1-3.3,7.1c0,2.2,0.4,4,1.2,5.5c0.8,1.4,2.2,2.7,4.1,3.9c1.9,1.2,4.9,2.5,9,4c6.8,2.5,11.5,5.1,13.9,7.8
		c2.5,2.8,3.7,6.3,3.7,10.7c0,5.6-2,10-6.1,13.2c-4.1,3.2-9.8,4.7-17.1,4.7C967.2,119.9,961.5,118.9,957.4,117z"/>
</g>
<g>
	<path class="st1" d="M437.8,119l25.4-64.5h6.3l25.3,64.5H487l-8-20.5h-25.8l-7.9,20.5H437.8z M455.9,91.8h20.8l-7.5-19.9
		c-1-2.6-2-5.7-3-9.3c-0.6,2.8-1.6,5.8-2.8,9.3L455.9,91.8z"/>
	<path class="st1" d="M498.8,54.8H516l6.9,32.2c1.6,7.3,2.7,13,3.2,17c0.4-3.2,1.1-7.3,2.1-12.2c1-5,1.9-9.2,2.7-12.7l5.6-24.3h16
		L558,79c1.2,4.5,2.2,9.2,3,14.1c0.9,4.9,1.5,8.5,1.9,10.8c0.4-3.5,1.5-9.2,3.1-16.9l7.2-32.3h17.2L574.2,119h-20.5l-6.6-28
		c-0.2-0.8-0.6-2.9-1.3-6.3c-0.6-3.4-1.1-6.5-1.5-9.4c-0.5,4-1.6,10.5-3.5,19.2c-1,4.9-2.8,13-5.2,24.4h-20.5L498.8,54.8z"/>
	<path class="st1" d="M600.6,119V54.8h38.1v14h-20.7v9.9h19.1v14h-19.1v12h20.7V119H600.6z"/>
	<path class="st1" d="M645.8,119l21-64.5h23.2l21.2,64.5h-19l-3.2-12h-20.8l-3.3,12H645.8z M671.7,92.7h13.7l-2.8-10.5
		c-1.9-6.7-3.3-12.4-4.2-17.1c-0.3,1.5-0.8,4-1.6,7.4C676.1,75.8,674.4,82.5,671.7,92.7z"/>
	<path class="st1" d="M720.7,119V54.8h21c17.4,0,26.2,6.3,26.2,19c0,7.4-3.6,13.2-10.9,17.3l18.8,28h-19.7l-13.6-23.4h-4.4V119
		H720.7z M738.2,82.6h3.2c6,0,9.1-2.7,9.1-8c0-4.4-3-6.6-8.9-6.6h-3.4V82.6z"/>
	<path class="st1" d="M786.2,119V54.8h8.4l35,53.7h0.3l-0.4-7.6c-0.1-3-0.2-5.2-0.2-6.5c0-1.3,0-2.2,0-2.7V54.8h6.9V119h-8.4
		l-35.1-53.9h-0.4c0.5,6.1,0.7,11.9,0.7,17.4V119H786.2z"/>
	<path class="st1" d="M856.8,119V54.8h35.8v6.7h-28.3V82h26.6v6.7h-26.6v23.6h28.3v6.7H856.8z"/>
	<path class="st1" d="M905.3,117v-7.2c5.7,2.4,11.6,3.6,17.8,3.6c4.9,0,8.7-0.9,11.2-2.8c2.6-1.9,3.8-4.5,3.8-7.9
		c0-2.2-0.4-4-1.3-5.5c-0.9-1.4-2.4-2.8-4.4-3.9c-2.1-1.2-5.3-2.6-9.6-4.1c-6-2.2-10.3-4.7-12.8-7.7c-2.5-2.9-3.8-6.8-3.8-11.6
		s1.8-8.7,5.5-11.6s8.7-4.4,14.9-4.4s12,1.2,17.4,3.5l-2.3,6.5c-5.3-2.2-10.4-3.3-15.4-3.3c-4,0-7.1,0.9-9.3,2.6
		c-2.2,1.7-3.3,4.1-3.3,7.1c0,2.2,0.4,4,1.2,5.5c0.8,1.4,2.2,2.7,4.1,3.9c1.9,1.2,4.9,2.5,9,4c6.8,2.5,11.5,5.1,13.9,7.8
		c2.5,2.8,3.7,6.3,3.7,10.7c0,5.6-2,10-6.1,13.2c-4.1,3.2-9.8,4.7-17.1,4.7C915.1,119.9,909.4,118.9,905.3,117z"/>
	<path class="st1" d="M957.4,117v-7.2c5.7,2.4,11.6,3.6,17.8,3.6c4.9,0,8.7-0.9,11.2-2.8c2.6-1.9,3.8-4.5,3.8-7.9
		c0-2.2-0.4-4-1.3-5.5c-0.9-1.4-2.4-2.8-4.4-3.9c-2.1-1.2-5.3-2.6-9.6-4.1c-6-2.2-10.3-4.7-12.8-7.7c-2.5-2.9-3.8-6.8-3.8-11.6
		s1.8-8.7,5.5-11.6s8.7-4.4,14.9-4.4s12,1.2,17.4,3.5l-2.3,6.5c-5.3-2.2-10.4-3.3-15.4-3.3c-4,0-7.1,0.9-9.3,2.6
		c-2.2,1.7-3.3,4.1-3.3,7.1c0,2.2,0.4,4,1.2,5.5c0.8,1.4,2.2,2.7,4.1,3.9c1.9,1.2,4.9,2.5,9,4c6.8,2.5,11.5,5.1,13.9,7.8
		c2.5,2.8,3.7,6.3,3.7,10.7c0,5.6-2,10-6.1,13.2c-4.1,3.2-9.8,4.7-17.1,4.7C967.2,119.9,961.5,118.9,957.4,117z"/>
</g>
</svg>
