<?xml version="1.0" encoding="utf-8"?>
<!-- Generator: Adobe Illustrator 19.1.0, SVG Export Plug-In . SVG Version: 6.00 Build 0)  -->
<svg version="1.1" id="Layer_1" xmlns="http://www.w3.org/2000/svg" xmlns:xlink="http://www.w3.org/1999/xlink" x="0px" y="0px"
	 width="100px" height="100px" viewBox="0 0 138 124" enable-background="new 0 0 138 124" xml:space="preserve">
<g>
	<path fill="#FFFFFF" d="M114.9,91.1l-12.8-12.8c-2.5-2.5-6.7-2.5-9.4,0.2L86.4,85c-0.4-0.2-0.8-0.5-1.3-0.7
		C81,82,75.5,78.9,69.6,73.1c-5.9-5.9-8.9-11.4-11.2-15.5c-0.2-0.4-0.5-0.8-0.7-1.2l4.3-4.3l2.1-2.1c2.6-2.6,2.7-6.8,0.2-9.4
		L51.6,27.8c-2.5-2.5-6.7-2.5-9.4,0.2l-3.6,3.6l0.1,0.1c-1.2,1.5-2.2,3.3-3,5.2c-0.7,1.8-1.1,3.6-1.3,5.3c-1.7,14,4.7,26.7,22,44
		c23.9,23.9,43.2,22.1,44.1,22c1.8-0.2,3.5-0.6,5.3-1.3c1.9-0.7,3.7-1.7,5.2-2.9l0.1,0.1l3.6-3.6C117.4,97.9,117.4,93.7,114.9,91.1z
		 M111.9,97.7l-1.6,1.6l-0.6,0.6c-1,1-2.7,2.3-5.3,3.3c-1.4,0.6-2.9,0.9-4.3,1.1c-0.2,0-18.3,1.6-40.8-20.9
		C40.2,64.3,37.1,53.3,38.4,42.7c0.2-1.4,0.5-2.8,1.1-4.3c1-2.6,2.4-4.3,3.3-5.3l2.2-2.2c1.1-1.1,2.7-1.2,3.7-0.2l12.8,12.8
		c1,1,0.9,2.6-0.2,3.7l-8.6,8.6l0.8,1.3c0.4,0.7,0.9,1.6,1.4,2.5c2.4,4.3,5.6,10.1,11.9,16.4c6.2,6.2,12.1,9.5,16.3,11.8
		c0.9,0.5,1.8,1,2.5,1.4L87,90l8.6-8.6c1.1-1.1,2.7-1.1,3.7-0.2L112.1,94C113.1,94.9,113,96.6,111.9,97.7z"/>
</g>
</svg>
