<?xml version="1.0" encoding="utf-8"?>
<!-- Generator: Adobe Illustrator 19.1.0, SVG Export Plug-In . SVG Version: 6.00 Build 0)  -->
<svg version="1.1" id="Layer_1" xmlns="http://www.w3.org/2000/svg" xmlns:xlink="http://www.w3.org/1999/xlink" x="0px" y="0px"
	 viewBox="-399 292 480 218" style="enable-background:new -399 292 480 218;" xml:space="preserve">
<style type="text/css">
	.st0{fill:#E2393E;stroke:#252932;stroke-miterlimit:10;}
	.st1{fill:#FFFFFF;}
</style>
<rect x="-399" y="292" class="st0" width="480" height="218"/>
<g>
	
		<image style="overflow:visible;opacity:0.75;enable-background:new    ;" width="255" height="161" xlink:href="33346BFC.png"  transform="matrix(1 0 0 1 -298 332)">
	</image>
	<g>
		<g>
			<path class="st1" d="M-241,389.2h-7.8v-18.6c0-1.3,0-2.2,0-3c0-0.7,0.1-3.8,0.4-9.2h-0.2l-10.1,30.7h-7.6l-9.5-30.8h-0.2
				c0.3,6.1,0.5,10.3,0.5,12.5v18.3h-7.4v-39.3h11.3l9.3,30h0.2l9.9-30h11.3L-241,389.2L-241,389.2z"/>
			<path class="st1" d="M-206,387.6c-2.8,1.4-6.3,2.1-10.6,2.1c-4.8,0-8.6-1.3-11.3-4s-4.1-6.5-4.1-11.4c0-5,1.3-8.8,3.8-11.5
				c2.5-2.8,5.9-4.2,10.3-4.2c4.4,0,7.7,1.2,10,3.6c2.4,2.4,3.6,5.7,3.6,10v4h-19.4c0.1,2.3,0.8,4.2,2.1,5.5s3.1,1.9,5.4,1.9
				c3.4,0,6.8-0.8,10.2-2.4V387.6z M-213.5,366.1c-1-1.1-2.4-1.7-4.1-1.7s-3.1,0.5-4.1,1.6s-1.6,2.7-1.7,4.7h11.5
				C-212,368.8-212.5,367.2-213.5,366.1z"/>
			<path class="st1" d="M-169.7,389.2h-6.3l-1.6-3.9h-0.3c-1.8,3-4.7,4.4-8.5,4.4c-3.5,0-6.3-1.4-8.3-4.1s-3-6.5-3-11.4
				s1-8.7,3.1-11.5c2-2.7,4.9-4.1,8.6-4.1c3.7,0,6.5,1.5,8.5,4.4h0.3c-0.4-2.3-0.6-4.3-0.6-6v-9.6h8.2L-169.7,389.2L-169.7,389.2z
				 M-177.4,374.3c0-3.2-0.5-5.5-1.5-6.9s-2.6-2.1-4.8-2.1c-1.8,0-3.3,0.8-4.3,2.3c-1,1.6-1.5,3.8-1.5,6.7c0,2.9,0.5,5.1,1.5,6.6
				s2.5,2.2,4.5,2.2s3.5-0.6,4.5-1.8c1-1.2,1.5-3.3,1.6-6.2V374.3z"/>
			<path class="st1" d="M-159.9,351.4c0-2.7,1.5-4,4.5-4s4.5,1.3,4.5,4c0,1.3-0.4,2.3-1.1,3s-1.9,1-3.3,1
				C-158.4,355.4-159.9,354.1-159.9,351.4z M-151.3,389.2h-8.2v-30h8.2V389.2z"/>
			<path class="st1" d="M-128.9,389.7c-9.3,0-14-5.1-14-15.4c0-5.1,1.3-9,3.8-11.7s6.2-4.1,10.9-4.1c3.5,0,6.6,0.7,9.3,2l-2.4,6.3
				c-2.9-1.2-5.2-1.8-6.9-1.8c-4.3,0-6.4,3-6.4,8.9s2.1,8.9,6.4,8.9c3,0,5.8-0.9,8.4-2.6v7c-1.4,0.9-2.7,1.5-4,1.7
				C-125.1,389.6-126.8,389.7-128.9,389.7z"/>
			<path class="st1" d="M-110.3,361.3c3.5-1.8,7.3-2.7,11.4-2.7s7.3,0.9,9.4,2.7c2.1,1.8,3.2,4.4,3.2,8v20H-92l-1.6-4.1h-0.2
				c-1.4,1.8-2.8,3-4.2,3.6c-1.5,0.7-3.4,1-5.7,1c-2.9,0-5.1-0.8-6.8-2.5c-1.6-1.6-2.5-4-2.5-7.1s1.1-5.4,3.3-6.9
				c2.2-1.5,5.6-2.4,10.1-2.5l5.2-0.2v-1.3c0-3-1.6-4.6-4.7-4.6c-2.4,0-5.2,0.7-8.5,2.2L-110.3,361.3z M-104.7,380.3
				c0,2.3,1.3,3.5,4,3.5c1.9,0,3.4-0.5,4.6-1.6c1.1-1.1,1.7-2.5,1.7-4.4v-2.5l-3.2,0.1c-2.4,0.1-4.2,0.5-5.3,1.3
				C-104.2,377.5-104.7,378.7-104.7,380.3z"/>
			<path class="st1" d="M-68.1,389.2h-8.2v-41.8h8.2V389.2z"/>
			<path class="st1" d="M-228.5,417.4c0-2.7,1.5-4,4.5-4s4.5,1.3,4.5,4c0,1.3-0.4,2.3-1.1,3s-1.9,1-3.3,1
				C-227,421.4-228.5,420.1-228.5,417.4z M-220,455.2h-8.2v-30h8.2V455.2z"/>
			<path class="st1" d="M-192.7,424.6c3.5,0,6.1,0.9,7.9,2.8c1.8,1.9,2.7,4.6,2.7,8.2v19.6h-8.2v-17.5c0-2.2-0.4-3.8-1.2-4.9
				s-2-1.6-3.7-1.6c-2.3,0-3.9,0.8-5,2.3s-1.5,4.1-1.5,7.6v14.1h-8.2v-30h6.3l1.1,3.9h0.5c0.9-1.5,2.1-2.6,3.7-3.3
				C-196.6,425-194.7,424.6-192.7,424.6z"/>
			<path class="st1" d="M-170.6,423c0-3.4,0.8-5.9,2.5-7.5s4.4-2.3,8.1-2.3c2.8,0,5.3,0.4,7.5,1.3l-2.1,6c-1.7-0.5-3.1-0.8-4.4-0.8
				c-1.3,0-2.1,0.3-2.7,1c-0.5,0.7-0.8,1.6-0.8,2.7v1.9h7.1v6.2h-7.1v23.9h-8.2v-23.9h-4.5v-3.9l4.5-2.2L-170.6,423L-170.6,423z"/>
			<path class="st1" d="M-136,424.6c2.8,0,5.2,0.6,7.4,1.9c2.2,1.2,3.9,3,5,5.4c1.2,2.3,1.8,5,1.8,8c0,0.1,0,0.2,0,0.3
				c0,4.9-1.3,8.7-3.9,11.5s-6.2,4.1-10.8,4.1c-0.1,0-0.2,0-0.2,0c-2.8,0-5.2-0.6-7.4-1.9s-3.9-3.1-5-5.4c-1.2-2.3-1.8-5-1.8-8
				c0-0.1,0-0.2,0-0.3c0-4.9,1.3-8.7,3.8-11.4c2.6-2.7,6.2-4.1,10.8-4.1C-136.1,424.6-136.1,424.6-136,424.6z M-131.6,433.4
				c-1-1.5-2.6-2.2-4.7-2.2s-3.7,0.7-4.7,2.2s-1.5,3.7-1.5,6.7s0.5,5.3,1.5,6.8s2.6,2.2,4.7,2.2s3.7-0.7,4.7-2.2s1.5-3.7,1.5-6.8
				C-130.1,437.1-130.6,434.9-131.6,433.4z"/>
		</g>
		<g>
			<path class="st1" d="M-241,389.2h-7.8v-18.6c0-1.3,0-2.2,0-3c0-0.7,0.1-3.8,0.4-9.2h-0.2l-10.1,30.7h-7.6l-9.5-30.8h-0.2
				c0.3,6.1,0.5,10.3,0.5,12.5v18.3h-7.4v-39.3h11.3l9.3,30h0.2l9.9-30h11.3L-241,389.2L-241,389.2z"/>
			<path class="st1" d="M-206,387.6c-2.8,1.4-6.3,2.1-10.6,2.1c-4.8,0-8.6-1.3-11.3-4s-4.1-6.5-4.1-11.4c0-5,1.3-8.8,3.8-11.5
				c2.5-2.8,5.9-4.2,10.3-4.2c4.4,0,7.7,1.2,10,3.6c2.4,2.4,3.6,5.7,3.6,10v4h-19.4c0.1,2.3,0.8,4.2,2.1,5.5s3.1,1.9,5.4,1.9
				c3.4,0,6.8-0.8,10.2-2.4V387.6z M-213.5,366.1c-1-1.1-2.4-1.7-4.1-1.7s-3.1,0.5-4.1,1.6s-1.6,2.7-1.7,4.7h11.5
				C-212,368.8-212.5,367.2-213.5,366.1z"/>
			<path class="st1" d="M-169.7,389.2h-6.3l-1.6-3.9h-0.3c-1.8,3-4.7,4.4-8.5,4.4c-3.5,0-6.3-1.4-8.3-4.1s-3-6.5-3-11.4
				s1-8.7,3.1-11.5c2-2.7,4.9-4.1,8.6-4.1c3.7,0,6.5,1.5,8.5,4.4h0.3c-0.4-2.3-0.6-4.3-0.6-6v-9.6h8.2L-169.7,389.2L-169.7,389.2z
				 M-177.4,374.3c0-3.2-0.5-5.5-1.5-6.9s-2.6-2.1-4.8-2.1c-1.8,0-3.3,0.8-4.3,2.3c-1,1.6-1.5,3.8-1.5,6.7c0,2.9,0.5,5.1,1.5,6.6
				s2.5,2.2,4.5,2.2s3.5-0.6,4.5-1.8c1-1.2,1.5-3.3,1.6-6.2V374.3z"/>
			<path class="st1" d="M-159.9,351.4c0-2.7,1.5-4,4.5-4s4.5,1.3,4.5,4c0,1.3-0.4,2.3-1.1,3s-1.9,1-3.3,1
				C-158.4,355.4-159.9,354.1-159.9,351.4z M-151.3,389.2h-8.2v-30h8.2V389.2z"/>
			<path class="st1" d="M-128.9,389.7c-9.3,0-14-5.1-14-15.4c0-5.1,1.3-9,3.8-11.7s6.2-4.1,10.9-4.1c3.5,0,6.6,0.7,9.3,2l-2.4,6.3
				c-2.9-1.2-5.2-1.8-6.9-1.8c-4.3,0-6.4,3-6.4,8.9s2.1,8.9,6.4,8.9c3,0,5.8-0.9,8.4-2.6v7c-1.4,0.9-2.7,1.5-4,1.7
				C-125.1,389.6-126.8,389.7-128.9,389.7z"/>
			<path class="st1" d="M-110.3,361.3c3.5-1.8,7.3-2.7,11.4-2.7s7.3,0.9,9.4,2.7c2.1,1.8,3.2,4.4,3.2,8v20H-92l-1.6-4.1h-0.2
				c-1.4,1.8-2.8,3-4.2,3.6c-1.5,0.7-3.4,1-5.7,1c-2.9,0-5.1-0.8-6.8-2.5c-1.6-1.6-2.5-4-2.5-7.1s1.1-5.4,3.3-6.9
				c2.2-1.5,5.6-2.4,10.1-2.5l5.2-0.2v-1.3c0-3-1.6-4.6-4.7-4.6c-2.4,0-5.2,0.7-8.5,2.2L-110.3,361.3z M-104.7,380.3
				c0,2.3,1.3,3.5,4,3.5c1.9,0,3.4-0.5,4.6-1.6c1.1-1.1,1.7-2.5,1.7-4.4v-2.5l-3.2,0.1c-2.4,0.1-4.2,0.5-5.3,1.3
				C-104.2,377.5-104.7,378.7-104.7,380.3z"/>
			<path class="st1" d="M-68.1,389.2h-8.2v-41.8h8.2V389.2z"/>
			<path class="st1" d="M-228.5,417.4c0-2.7,1.5-4,4.5-4s4.5,1.3,4.5,4c0,1.3-0.4,2.3-1.1,3s-1.9,1-3.3,1
				C-227,421.4-228.5,420.1-228.5,417.4z M-220,455.2h-8.2v-30h8.2V455.2z"/>
			<path class="st1" d="M-192.7,424.6c3.5,0,6.1,0.9,7.9,2.8c1.8,1.9,2.7,4.6,2.7,8.2v19.6h-8.2v-17.5c0-2.2-0.4-3.8-1.2-4.9
				s-2-1.6-3.7-1.6c-2.3,0-3.9,0.8-5,2.3s-1.5,4.1-1.5,7.6v14.1h-8.2v-30h6.3l1.1,3.9h0.5c0.9-1.5,2.1-2.6,3.7-3.3
				C-196.6,425-194.7,424.6-192.7,424.6z"/>
			<path class="st1" d="M-170.6,423c0-3.4,0.8-5.9,2.5-7.5s4.4-2.3,8.1-2.3c2.8,0,5.3,0.4,7.5,1.3l-2.1,6c-1.7-0.5-3.1-0.8-4.4-0.8
				c-1.3,0-2.1,0.3-2.7,1c-0.5,0.7-0.8,1.6-0.8,2.7v1.9h7.1v6.2h-7.1v23.9h-8.2v-23.9h-4.5v-3.9l4.5-2.2L-170.6,423L-170.6,423z"/>
			<path class="st1" d="M-136,424.6c2.8,0,5.2,0.6,7.4,1.9c2.2,1.2,3.9,3,5,5.4c1.2,2.3,1.8,5,1.8,8c0,0.1,0,0.2,0,0.3
				c0,4.9-1.3,8.7-3.9,11.5s-6.2,4.1-10.8,4.1c-0.1,0-0.2,0-0.2,0c-2.8,0-5.2-0.6-7.4-1.9s-3.9-3.1-5-5.4c-1.2-2.3-1.8-5-1.8-8
				c0-0.1,0-0.2,0-0.3c0-4.9,1.3-8.7,3.8-11.4c2.6-2.7,6.2-4.1,10.8-4.1C-136.1,424.6-136.1,424.6-136,424.6z M-131.6,433.4
				c-1-1.5-2.6-2.2-4.7-2.2s-3.7,0.7-4.7,2.2s-1.5,3.7-1.5,6.7s0.5,5.3,1.5,6.8s2.6,2.2,4.7,2.2s3.7-0.7,4.7-2.2s1.5-3.7,1.5-6.8
				C-130.1,437.1-130.6,434.9-131.6,433.4z"/>
		</g>
		<g>
			<path class="st1" d="M-241,389.2h-7.8v-18.6c0-1.3,0-2.2,0-3c0-0.7,0.1-3.8,0.4-9.2h-0.2l-10.1,30.7h-7.6l-9.5-30.8h-0.2
				c0.3,6.1,0.5,10.3,0.5,12.5v18.3h-7.4v-39.3h11.3l9.3,30h0.2l9.9-30h11.3L-241,389.2L-241,389.2z"/>
			<path class="st1" d="M-206,387.6c-2.8,1.4-6.3,2.1-10.6,2.1c-4.8,0-8.6-1.3-11.3-4s-4.1-6.5-4.1-11.4c0-5,1.3-8.8,3.8-11.5
				c2.5-2.8,5.9-4.2,10.3-4.2c4.4,0,7.7,1.2,10,3.6c2.4,2.4,3.6,5.7,3.6,10v4h-19.4c0.1,2.3,0.8,4.2,2.1,5.5s3.1,1.9,5.4,1.9
				c3.4,0,6.8-0.8,10.2-2.4V387.6z M-213.5,366.1c-1-1.1-2.4-1.7-4.1-1.7s-3.1,0.5-4.1,1.6s-1.6,2.7-1.7,4.7h11.5
				C-212,368.8-212.5,367.2-213.5,366.1z"/>
			<path class="st1" d="M-169.7,389.2h-6.3l-1.6-3.9h-0.3c-1.8,3-4.7,4.4-8.5,4.4c-3.5,0-6.3-1.4-8.3-4.1s-3-6.5-3-11.4
				s1-8.7,3.1-11.5c2-2.7,4.9-4.1,8.6-4.1c3.7,0,6.5,1.5,8.5,4.4h0.3c-0.4-2.3-0.6-4.3-0.6-6v-9.6h8.2L-169.7,389.2L-169.7,389.2z
				 M-177.4,374.3c0-3.2-0.5-5.5-1.5-6.9s-2.6-2.1-4.8-2.1c-1.8,0-3.3,0.8-4.3,2.3c-1,1.6-1.5,3.8-1.5,6.7c0,2.9,0.5,5.1,1.5,6.6
				s2.5,2.2,4.5,2.2s3.5-0.6,4.5-1.8c1-1.2,1.5-3.3,1.6-6.2V374.3z"/>
			<path class="st1" d="M-159.9,351.4c0-2.7,1.5-4,4.5-4s4.5,1.3,4.5,4c0,1.3-0.4,2.3-1.1,3s-1.9,1-3.3,1
				C-158.4,355.4-159.9,354.1-159.9,351.4z M-151.3,389.2h-8.2v-30h8.2V389.2z"/>
			<path class="st1" d="M-128.9,389.7c-9.3,0-14-5.1-14-15.4c0-5.1,1.3-9,3.8-11.7s6.2-4.1,10.9-4.1c3.5,0,6.6,0.7,9.3,2l-2.4,6.3
				c-2.9-1.2-5.2-1.8-6.9-1.8c-4.3,0-6.4,3-6.4,8.9s2.1,8.9,6.4,8.9c3,0,5.8-0.9,8.4-2.6v7c-1.4,0.9-2.7,1.5-4,1.7
				C-125.1,389.6-126.8,389.7-128.9,389.7z"/>
			<path class="st1" d="M-110.3,361.3c3.5-1.8,7.3-2.7,11.4-2.7s7.3,0.9,9.4,2.7c2.1,1.8,3.2,4.4,3.2,8v20H-92l-1.6-4.1h-0.2
				c-1.4,1.8-2.8,3-4.2,3.6c-1.5,0.7-3.4,1-5.7,1c-2.9,0-5.1-0.8-6.8-2.5c-1.6-1.6-2.5-4-2.5-7.1s1.1-5.4,3.3-6.9
				c2.2-1.5,5.6-2.4,10.1-2.5l5.2-0.2v-1.3c0-3-1.6-4.6-4.7-4.6c-2.4,0-5.2,0.7-8.5,2.2L-110.3,361.3z M-104.7,380.3
				c0,2.3,1.3,3.5,4,3.5c1.9,0,3.4-0.5,4.6-1.6c1.1-1.1,1.7-2.5,1.7-4.4v-2.5l-3.2,0.1c-2.4,0.1-4.2,0.5-5.3,1.3
				C-104.2,377.5-104.7,378.7-104.7,380.3z"/>
			<path class="st1" d="M-68.1,389.2h-8.2v-41.8h8.2V389.2z"/>
			<path class="st1" d="M-228.5,417.4c0-2.7,1.5-4,4.5-4s4.5,1.3,4.5,4c0,1.3-0.4,2.3-1.1,3s-1.9,1-3.3,1
				C-227,421.4-228.5,420.1-228.5,417.4z M-220,455.2h-8.2v-30h8.2V455.2z"/>
			<path class="st1" d="M-192.7,424.6c3.5,0,6.1,0.9,7.9,2.8c1.8,1.9,2.7,4.6,2.7,8.2v19.6h-8.2v-17.5c0-2.2-0.4-3.8-1.2-4.9
				s-2-1.6-3.7-1.6c-2.3,0-3.9,0.8-5,2.3s-1.5,4.1-1.5,7.6v14.1h-8.2v-30h6.3l1.1,3.9h0.5c0.9-1.5,2.1-2.6,3.7-3.3
				C-196.6,425-194.7,424.6-192.7,424.6z"/>
			<path class="st1" d="M-170.6,423c0-3.4,0.8-5.9,2.5-7.5s4.4-2.3,8.1-2.3c2.8,0,5.3,0.4,7.5,1.3l-2.1,6c-1.7-0.5-3.1-0.8-4.4-0.8
				c-1.3,0-2.1,0.3-2.7,1c-0.5,0.7-0.8,1.6-0.8,2.7v1.9h7.1v6.2h-7.1v23.9h-8.2v-23.9h-4.5v-3.9l4.5-2.2L-170.6,423L-170.6,423z"/>
			<path class="st1" d="M-136,424.6c2.8,0,5.2,0.6,7.4,1.9c2.2,1.2,3.9,3,5,5.4c1.2,2.3,1.8,5,1.8,8c0,0.1,0,0.2,0,0.3
				c0,4.9-1.3,8.7-3.9,11.5s-6.2,4.1-10.8,4.1c-0.1,0-0.2,0-0.2,0c-2.8,0-5.2-0.6-7.4-1.9s-3.9-3.1-5-5.4c-1.2-2.3-1.8-5-1.8-8
				c0-0.1,0-0.2,0-0.3c0-4.9,1.3-8.7,3.8-11.4c2.6-2.7,6.2-4.1,10.8-4.1C-136.1,424.6-136.1,424.6-136,424.6z M-131.6,433.4
				c-1-1.5-2.6-2.2-4.7-2.2s-3.7,0.7-4.7,2.2s-1.5,3.7-1.5,6.7s0.5,5.3,1.5,6.8s2.6,2.2,4.7,2.2s3.7-0.7,4.7-2.2s1.5-3.7,1.5-6.8
				C-130.1,437.1-130.6,434.9-131.6,433.4z"/>
		</g>
	</g>
</g>
</svg>
