<?xml version="1.0" encoding="utf-8"?>
<!-- Generator: Adobe Illustrator 19.1.0, SVG Export Plug-In . SVG Version: 6.00 Build 0)  -->
<svg version="1.1" id="Layer_1" xmlns="http://www.w3.org/2000/svg" xmlns:xlink="http://www.w3.org/1999/xlink" x="0px" y="0px"
	 viewBox="-399 292 480 218" style="enable-background:new -399 292 480 218;" xml:space="preserve">
<style type="text/css">
	.st0{opacity:0.6;fill:#E2393E;enable-background:new    ;}
	.st1{fill:#FFFFFF;}
	.st2{fill:#E2393E;stroke:#000000;stroke-miterlimit:10;}
</style>
<rect x="-1515.1" y="2510.8" class="st0" width="480" height="218"/>
<g>
	<g>
		<g>
			<path class="st1" d="M-1328.7,2641.5c-5.7,0-10.1-1.7-13.1-5.2s-4.5-8.4-4.5-14.9c0-0.1,0-0.2,0-0.3c0-3.9,0.7-7.4,2.2-10.5
				s3.6-5.4,6.4-7s5.9-2.5,9.5-2.5c0.1,0,0.2,0,0.3,0c3.8,0,7.7,0.9,11.5,2.8l-2.7,6.8c-3.6-1.7-6.6-2.6-8.8-2.6
				c-3.1,0-5.6,1.2-7.3,3.5c-1.7,2.4-2.6,5.6-2.6,9.8c0,8.8,3.3,13.1,9.9,13.1c2.7,0,6.1-0.7,10-2.1v7
				C-1321.1,2640.8-1324.7,2641.5-1328.7,2641.5z"/>
			<path class="st1" d="M-1295.5,2610.4c2.8,0,5.2,0.6,7.4,1.9c2.2,1.2,3.9,3,5,5.4c1.2,2.3,1.8,5,1.8,8c0,0.1,0,0.2,0,0.3
				c0,4.9-1.3,8.7-3.9,11.5c-2.6,2.8-6.2,4.1-10.8,4.1c-0.1,0-0.2,0-0.2,0c-2.8,0-5.2-0.6-7.4-1.9c-2.2-1.3-3.9-3.1-5-5.4
				c-1.1-2.3-1.8-5-1.8-8c0-0.1,0-0.2,0-0.3c0-4.9,1.3-8.7,3.8-11.4c2.6-2.7,6.2-4.1,10.8-4.1
				C-1295.7,2610.4-1295.6,2610.4-1295.5,2610.4z M-1291.1,2619.2c-1-1.5-2.6-2.2-4.7-2.2c-2.1,0-3.7,0.7-4.7,2.2s-1.5,3.7-1.5,6.7
				s0.5,5.3,1.5,6.8s2.6,2.2,4.7,2.2c2.1,0,3.7-0.7,4.7-2.2s1.5-3.7,1.5-6.8C-1289.7,2622.9-1290.1,2620.6-1291.1,2619.2z"/>
			<path class="st1" d="M-1255.8,2610.4c3.5,0,6.1,0.9,7.9,2.8c1.8,1.9,2.7,4.6,2.7,8.2v19.6h-8.2v-17.5c0-2.2-0.4-3.8-1.2-4.9
				c-0.8-1.1-2-1.6-3.7-1.6c-2.3,0-3.9,0.8-5,2.3c-1,1.5-1.5,4.1-1.5,7.6v14.1h-8.2v-30h6.3l1.1,3.9h0.5c0.9-1.5,2.1-2.6,3.7-3.3
				C-1259.7,2610.8-1257.8,2610.4-1255.8,2610.4z"/>
			<path class="st1" d="M-1226,2610.9h8.4v6.1h-8.4v14.5c0,1.1,0.3,2,1,2.6c0.6,0.6,1.6,0.9,2.8,0.9c1.3,0,2.9-0.3,4.9-0.9v6.1
				c-2,0.9-4.6,1.4-7.7,1.4c-3.1,0-5.4-0.8-6.9-2.5c-1.5-1.6-2.3-4.1-2.3-7.5v-14.5h-3.9v-3.5l4.5-2.7l2.4-6.3h5.2V2610.9z"/>
			<path class="st1" d="M-1208.7,2613c3.5-1.8,7.3-2.7,11.4-2.7c4.1,0,7.3,0.9,9.4,2.7c2.1,1.8,3.2,4.4,3.2,8v20h-5.7l-1.6-4.1h-0.2
				c-1.4,1.8-2.8,3-4.2,3.6c-1.5,0.7-3.4,1-5.7,1c-2.9,0-5.1-0.8-6.8-2.5c-1.6-1.6-2.5-4-2.5-7.1s1.1-5.4,3.3-6.9s5.6-2.4,10.1-2.5
				l5.2-0.2v-1.3c0-3-1.6-4.6-4.7-4.6c-2.4,0-5.2,0.7-8.5,2.2L-1208.7,2613z M-1203.1,2632.1c0,2.3,1.3,3.5,4,3.5
				c1.9,0,3.4-0.5,4.6-1.6c1.1-1.1,1.7-2.5,1.7-4.4v-2.5l-3.2,0.1c-2.4,0.1-4.2,0.5-5.3,1.3
				C-1202.4,2629.3-1203.1,2630.4-1203.1,2632.1z"/>
			<path class="st1" d="M-1162.4,2641.5c-9.3,0-14-5.1-14-15.4c0-5.1,1.3-9,3.8-11.7s6.2-4.1,10.9-4.1c3.5,0,6.6,0.7,9.3,2l-2.4,6.3
				c-2.9-1.2-5.2-1.8-6.9-1.8c-4.3,0-6.4,3-6.4,8.9s2.1,8.9,6.4,8.9c3,0,5.8-0.9,8.4-2.6v7c-1.4,0.9-2.7,1.5-4,1.7
				C-1158.7,2641.3-1160.4,2641.5-1162.4,2641.5z"/>
			<path class="st1" d="M-1135.6,2610.9h8.4v6.1h-8.4v14.5c0,1.1,0.3,2,1,2.6c0.6,0.6,1.6,0.9,2.8,0.9c1.3,0,2.9-0.3,4.9-0.9v6.1
				c-2,0.9-4.6,1.4-7.7,1.4s-5.4-0.8-6.9-2.5c-1.5-1.6-2.3-4.1-2.3-7.5v-14.5h-3.9v-3.5l4.5-2.7l2.4-6.3h5.2V2610.9z"/>
			<path class="st1" d="M-1110.8,2635.5c3,0,4.5-0.9,4.5-2.6c0-0.9-0.4-1.6-1.2-2.1s-2.6-1.4-5.3-2.6c-2.3-1-4-1.9-5.1-2.7
				c-1.1-0.8-1.9-1.8-2.3-2.8c-0.4-1-0.7-2.4-0.7-3.9c0-2.7,1-4.7,3.1-6.2c2.1-1.5,5-2.2,8.7-2.2s7.3,0.8,10.7,2.4l-2.5,5.9
				c-1.7-0.7-3.2-1.3-4.5-1.7c-1.3-0.4-2.5-0.6-3.7-0.6c-2.4,0-3.6,0.7-3.6,2c0,0.7,0.4,1.4,1.2,1.9c0.8,0.5,2.4,1.3,4.9,2.3
				s4.3,1.9,5.4,2.7c2.1,1.6,3.2,3.9,3.2,6.9s-1.1,5.3-3.2,6.9c-2.1,1.6-5.3,2.4-9.3,2.4c-4.1,0-7.5-0.6-10.2-1.7v-6.8
				c1.5,0.7,3.3,1.3,5.2,1.8C-1113.9,2635.3-1112.2,2635.5-1110.8,2635.5z"/>
		</g>
		<g>
			<path class="st1" d="M-1328.7,2641.5c-5.7,0-10.1-1.7-13.1-5.2s-4.5-8.4-4.5-14.9c0-0.1,0-0.2,0-0.3c0-3.9,0.7-7.4,2.2-10.5
				s3.6-5.4,6.4-7s5.9-2.5,9.5-2.5c0.1,0,0.2,0,0.3,0c3.8,0,7.7,0.9,11.5,2.8l-2.7,6.8c-3.6-1.7-6.6-2.6-8.8-2.6
				c-3.1,0-5.6,1.2-7.3,3.5c-1.7,2.4-2.6,5.6-2.6,9.8c0,8.8,3.3,13.1,9.9,13.1c2.7,0,6.1-0.7,10-2.1v7
				C-1321.1,2640.8-1324.7,2641.5-1328.7,2641.5z"/>
			<path class="st1" d="M-1295.5,2610.4c2.8,0,5.2,0.6,7.4,1.9c2.2,1.2,3.9,3,5,5.4c1.2,2.3,1.8,5,1.8,8c0,0.1,0,0.2,0,0.3
				c0,4.9-1.3,8.7-3.9,11.5c-2.6,2.8-6.2,4.1-10.8,4.1c-0.1,0-0.2,0-0.2,0c-2.8,0-5.2-0.6-7.4-1.9c-2.2-1.3-3.9-3.1-5-5.4
				c-1.1-2.3-1.8-5-1.8-8c0-0.1,0-0.2,0-0.3c0-4.9,1.3-8.7,3.8-11.4c2.6-2.7,6.2-4.1,10.8-4.1
				C-1295.7,2610.4-1295.6,2610.4-1295.5,2610.4z M-1291.1,2619.2c-1-1.5-2.6-2.2-4.7-2.2c-2.1,0-3.7,0.7-4.7,2.2s-1.5,3.7-1.5,6.7
				s0.5,5.3,1.5,6.8s2.6,2.2,4.7,2.2c2.1,0,3.7-0.7,4.7-2.2s1.5-3.7,1.5-6.8C-1289.7,2622.9-1290.1,2620.6-1291.1,2619.2z"/>
			<path class="st1" d="M-1255.8,2610.4c3.5,0,6.1,0.9,7.9,2.8c1.8,1.9,2.7,4.6,2.7,8.2v19.6h-8.2v-17.5c0-2.2-0.4-3.8-1.2-4.9
				c-0.8-1.1-2-1.6-3.7-1.6c-2.3,0-3.9,0.8-5,2.3c-1,1.5-1.5,4.1-1.5,7.6v14.1h-8.2v-30h6.3l1.1,3.9h0.5c0.9-1.5,2.1-2.6,3.7-3.3
				C-1259.7,2610.8-1257.8,2610.4-1255.8,2610.4z"/>
			<path class="st1" d="M-1226,2610.9h8.4v6.1h-8.4v14.5c0,1.1,0.3,2,1,2.6c0.6,0.6,1.6,0.9,2.8,0.9c1.3,0,2.9-0.3,4.9-0.9v6.1
				c-2,0.9-4.6,1.4-7.7,1.4c-3.1,0-5.4-0.8-6.9-2.5c-1.5-1.6-2.3-4.1-2.3-7.5v-14.5h-3.9v-3.5l4.5-2.7l2.4-6.3h5.2V2610.9z"/>
			<path class="st1" d="M-1208.7,2613c3.5-1.8,7.3-2.7,11.4-2.7c4.1,0,7.3,0.9,9.4,2.7c2.1,1.8,3.2,4.4,3.2,8v20h-5.7l-1.6-4.1h-0.2
				c-1.4,1.8-2.8,3-4.2,3.6c-1.5,0.7-3.4,1-5.7,1c-2.9,0-5.1-0.8-6.8-2.5c-1.6-1.6-2.5-4-2.5-7.1s1.1-5.4,3.3-6.9s5.6-2.4,10.1-2.5
				l5.2-0.2v-1.3c0-3-1.6-4.6-4.7-4.6c-2.4,0-5.2,0.7-8.5,2.2L-1208.7,2613z M-1203.1,2632.1c0,2.3,1.3,3.5,4,3.5
				c1.9,0,3.4-0.5,4.6-1.6c1.1-1.1,1.7-2.5,1.7-4.4v-2.5l-3.2,0.1c-2.4,0.1-4.2,0.5-5.3,1.3
				C-1202.4,2629.3-1203.1,2630.4-1203.1,2632.1z"/>
			<path class="st1" d="M-1162.4,2641.5c-9.3,0-14-5.1-14-15.4c0-5.1,1.3-9,3.8-11.7s6.2-4.1,10.9-4.1c3.5,0,6.6,0.7,9.3,2l-2.4,6.3
				c-2.9-1.2-5.2-1.8-6.9-1.8c-4.3,0-6.4,3-6.4,8.9s2.1,8.9,6.4,8.9c3,0,5.8-0.9,8.4-2.6v7c-1.4,0.9-2.7,1.5-4,1.7
				C-1158.7,2641.3-1160.4,2641.5-1162.4,2641.5z"/>
			<path class="st1" d="M-1135.6,2610.9h8.4v6.1h-8.4v14.5c0,1.1,0.3,2,1,2.6c0.6,0.6,1.6,0.9,2.8,0.9c1.3,0,2.9-0.3,4.9-0.9v6.1
				c-2,0.9-4.6,1.4-7.7,1.4s-5.4-0.8-6.9-2.5c-1.5-1.6-2.3-4.1-2.3-7.5v-14.5h-3.9v-3.5l4.5-2.7l2.4-6.3h5.2V2610.9z"/>
			<path class="st1" d="M-1110.8,2635.5c3,0,4.5-0.9,4.5-2.6c0-0.9-0.4-1.6-1.2-2.1s-2.6-1.4-5.3-2.6c-2.3-1-4-1.9-5.1-2.7
				c-1.1-0.8-1.9-1.8-2.3-2.8c-0.4-1-0.7-2.4-0.7-3.9c0-2.7,1-4.7,3.1-6.2c2.1-1.5,5-2.2,8.7-2.2s7.3,0.8,10.7,2.4l-2.5,5.9
				c-1.7-0.7-3.2-1.3-4.5-1.7c-1.3-0.4-2.5-0.6-3.7-0.6c-2.4,0-3.6,0.7-3.6,2c0,0.7,0.4,1.4,1.2,1.9c0.8,0.5,2.4,1.3,4.9,2.3
				s4.3,1.9,5.4,2.7c2.1,1.6,3.2,3.9,3.2,6.9s-1.1,5.3-3.2,6.9c-2.1,1.6-5.3,2.4-9.3,2.4c-4.1,0-7.5-0.6-10.2-1.7v-6.8
				c1.5,0.7,3.3,1.3,5.2,1.8C-1113.9,2635.3-1112.2,2635.5-1110.8,2635.5z"/>
		</g>
	</g>
	<g>
		<g id="User_5_">
			<g>
				<path class="st1" d="M-1409,2643.1c14,0,25.4-13.9,25.4-31s-11.4-31-25.4-31c-6.9,0-13.3,3.3-18.1,9.3
					c-4.7,5.8-7.2,13.5-7.2,21.7C-1434.4,2629.1-1423,2643.1-1409,2643.1z M-1409,2586.7c10.9,0,19.7,11.4,19.7,25.4
					s-8.9,25.4-19.7,25.4c-10.9,0-19.7-11.4-19.7-25.4S-1419.9,2586.7-1409,2586.7z M-1389.2,2637.4c-1.6,0-2.8,1.3-2.8,2.8
					s1.3,2.8,2.8,2.8c10.9,0,19.7,8.9,19.7,19.7c0,1.6-1.3,2.8-2.8,2.8h-73.3c-1.6,0-2.8-1.3-2.8-2.8c0-10.9,8.9-19.7,19.7-19.7
					c1.6,0,2.8-1.3,2.8-2.8s-1.3-2.8-2.8-2.8c-14,0-25.4,11.4-25.4,25.4c0,4.7,3.8,8.5,8.5,8.5h73.3c4.7,0,8.5-3.8,8.5-8.5
					C-1363.9,2648.8-1375.3,2637.4-1389.2,2637.4z"/>
			</g>
		</g>
	</g>
</g>
<rect x="-399" y="292" class="st2" width="480" height="218"/>
<g>
	<g>
		<path class="st1" d="M-211.9,370.1H-272c-8.9,0-16.2,7.3-16.2,16.2v37c0,8.9,7.3,16.2,16.2,16.2h38.3l18.3,18.3
			c0.6,0.6,1.4,1,2.3,1c0.4,0,0.8-0.1,1.2-0.2c1.2-0.5,2-1.7,2-3v-16.2c8-1,14.2-7.8,14.2-16.1v-37
			C-195.7,377.4-203,370.1-211.9,370.1z M-202.2,423.4c0,5.4-4.4,9.7-9.7,9.7h-1.2c-1.8,0-3.2,1.5-3.2,3.2v11.4L-230,434
			c-0.6-0.6-1.4-0.9-2.3-0.9h-39.6c-5.4,0-9.7-4.4-9.7-9.7v-37c0-5.4,4.4-9.7,9.7-9.7h60.1c5.4,0,9.7,4.4,9.7,9.7v37H-202.2z"/>
		<path class="st1" d="M-218.1,393.1h-47.7c-1.8,0-3.2,1.5-3.2,3.2c0,1.8,1.5,3.2,3.2,3.2h47.7c1.8,0,3.2-1.5,3.2-3.2
			C-214.8,394.5-216.3,393.1-218.1,393.1z"/>
		<path class="st1" d="M-218.1,411.2h-47.7c-1.8,0-3.2,1.5-3.2,3.2s1.5,3.2,3.2,3.2h47.7c1.8,0,3.2-1.5,3.2-3.2
			S-216.3,411.2-218.1,411.2z"/>
	</g>
</g>
<g>
	<path class="st1" d="M-142.3,429.8c-5.7,0-10.1-1.7-13.1-5.2s-4.5-8.4-4.5-14.9c0-0.1,0-0.2,0-0.3c0-3.9,0.7-7.4,2.2-10.5
		s3.6-5.4,6.4-7c2.8-1.6,5.9-2.5,9.5-2.5c0.1,0,0.2,0,0.3,0c3.8,0,7.7,0.9,11.5,2.8l-2.7,6.8c-3.6-1.7-6.6-2.6-8.8-2.6
		c-3.1,0-5.6,1.2-7.3,3.5c-1.7,2.4-2.6,5.6-2.6,9.8c0,8.8,3.3,13.1,9.9,13.1c2.7,0,6.1-0.7,10-2.1v7
		C-134.7,429.2-138.3,429.8-142.3,429.8z"/>
	<path class="st1" d="M-113.9,387.5v8.5c0,0.8-0.1,2.4-0.2,4.7l-0.2,2.4h0.4c1.8-3,4.7-4.4,8.7-4.4c3.5,0,6.2,0.9,8,2.8
		s2.8,4.6,2.8,8.2v19.6h-8.2v-17.5c0-4.3-1.6-6.5-4.8-6.5c-2.3,0-3.9,0.8-5,2.3s-1.5,4.1-1.5,7.6v14.1h-8.2v-41.8L-113.9,387.5
		L-113.9,387.5z"/>
	<path class="st1" d="M-83.5,401.4c3.5-1.8,7.3-2.7,11.4-2.7s7.3,0.9,9.4,2.7c2.1,1.8,3.2,4.4,3.2,8v20h-5.7l-1.6-4.1H-67
		c-1.4,1.8-2.8,3-4.2,3.6c-1.5,0.7-3.4,1-5.7,1c-2.9,0-5.1-0.8-6.8-2.5c-1.6-1.6-2.5-4-2.5-7.1s1.1-5.4,3.3-6.9
		c2.2-1.5,5.6-2.4,10.1-2.5l5.2-0.2v-1.3c0-3-1.6-4.6-4.7-4.6c-2.4,0-5.2,0.7-8.5,2.2L-83.5,401.4z M-77.9,420.4
		c0,2.3,1.3,3.5,4,3.5c1.9,0,3.4-0.5,4.6-1.6c1.1-1.1,1.7-2.5,1.7-4.4v-2.5l-3.2,0.1c-2.4,0.1-4.2,0.5-5.3,1.3
		C-77.3,417.6-77.9,418.8-77.9,420.4z"/>
	<path class="st1" d="M-40.4,399.3h8.4v6.1h-8.4v14.5c0,1.1,0.3,2,1,2.6s1.6,0.9,2.8,0.9c1.3,0,2.9-0.3,4.9-0.9v6.1
		c-2,0.9-4.6,1.4-7.7,1.4s-5.4-0.8-6.9-2.5c-1.5-1.6-2.3-4.1-2.3-7.5v-14.6h-3.9v-3.5l4.5-2.7l2.4-6.3h5.2V399.3z"/>
</g>
<g>
	<path class="st1" d="M-142.3,429.8c-5.7,0-10.1-1.7-13.1-5.2s-4.5-8.4-4.5-14.9c0-0.1,0-0.2,0-0.3c0-3.9,0.7-7.4,2.2-10.5
		s3.6-5.4,6.4-7c2.8-1.6,5.9-2.5,9.5-2.5c0.1,0,0.2,0,0.3,0c3.8,0,7.7,0.9,11.5,2.8l-2.7,6.8c-3.6-1.7-6.6-2.6-8.8-2.6
		c-3.1,0-5.6,1.2-7.3,3.5c-1.7,2.4-2.6,5.6-2.6,9.8c0,8.8,3.3,13.1,9.9,13.1c2.7,0,6.1-0.7,10-2.1v7
		C-134.7,429.2-138.3,429.8-142.3,429.8z"/>
	<path class="st1" d="M-113.9,387.5v8.5c0,0.8-0.1,2.4-0.2,4.7l-0.2,2.4h0.4c1.8-3,4.7-4.4,8.7-4.4c3.5,0,6.2,0.9,8,2.8
		s2.8,4.6,2.8,8.2v19.6h-8.2v-17.5c0-4.3-1.6-6.5-4.8-6.5c-2.3,0-3.9,0.8-5,2.3s-1.5,4.1-1.5,7.6v14.1h-8.2v-41.8L-113.9,387.5
		L-113.9,387.5z"/>
	<path class="st1" d="M-83.5,401.4c3.5-1.8,7.3-2.7,11.4-2.7s7.3,0.9,9.4,2.7c2.1,1.8,3.2,4.4,3.2,8v20h-5.7l-1.6-4.1H-67
		c-1.4,1.8-2.8,3-4.2,3.6c-1.5,0.7-3.4,1-5.7,1c-2.9,0-5.1-0.8-6.8-2.5c-1.6-1.6-2.5-4-2.5-7.1s1.1-5.4,3.3-6.9
		c2.2-1.5,5.6-2.4,10.1-2.5l5.2-0.2v-1.3c0-3-1.6-4.6-4.7-4.6c-2.4,0-5.2,0.7-8.5,2.2L-83.5,401.4z M-77.9,420.4
		c0,2.3,1.3,3.5,4,3.5c1.9,0,3.4-0.5,4.6-1.6c1.1-1.1,1.7-2.5,1.7-4.4v-2.5l-3.2,0.1c-2.4,0.1-4.2,0.5-5.3,1.3
		C-77.3,417.6-77.9,418.8-77.9,420.4z"/>
	<path class="st1" d="M-40.4,399.3h8.4v6.1h-8.4v14.5c0,1.1,0.3,2,1,2.6s1.6,0.9,2.8,0.9c1.3,0,2.9-0.3,4.9-0.9v6.1
		c-2,0.9-4.6,1.4-7.7,1.4s-5.4-0.8-6.9-2.5c-1.5-1.6-2.3-4.1-2.3-7.5v-14.6h-3.9v-3.5l4.5-2.7l2.4-6.3h5.2V399.3z"/>
</g>
<g>
	<path class="st1" d="M-142.3,429.8c-5.7,0-10.1-1.7-13.1-5.2s-4.5-8.4-4.5-14.9c0-0.1,0-0.2,0-0.3c0-3.9,0.7-7.4,2.2-10.5
		s3.6-5.4,6.4-7c2.8-1.6,5.9-2.5,9.5-2.5c0.1,0,0.2,0,0.3,0c3.8,0,7.7,0.9,11.5,2.8l-2.7,6.8c-3.6-1.7-6.6-2.6-8.8-2.6
		c-3.1,0-5.6,1.2-7.3,3.5c-1.7,2.4-2.6,5.6-2.6,9.8c0,8.8,3.3,13.1,9.9,13.1c2.7,0,6.1-0.7,10-2.1v7
		C-134.7,429.2-138.3,429.8-142.3,429.8z"/>
	<path class="st1" d="M-113.9,387.5v8.5c0,0.8-0.1,2.4-0.2,4.7l-0.2,2.4h0.4c1.8-3,4.7-4.4,8.7-4.4c3.5,0,6.2,0.9,8,2.8
		s2.8,4.6,2.8,8.2v19.6h-8.2v-17.5c0-4.3-1.6-6.5-4.8-6.5c-2.3,0-3.9,0.8-5,2.3s-1.5,4.1-1.5,7.6v14.1h-8.2v-41.8L-113.9,387.5
		L-113.9,387.5z"/>
	<path class="st1" d="M-83.5,401.4c3.5-1.8,7.3-2.7,11.4-2.7s7.3,0.9,9.4,2.7c2.1,1.8,3.2,4.4,3.2,8v20h-5.7l-1.6-4.1H-67
		c-1.4,1.8-2.8,3-4.2,3.6c-1.5,0.7-3.4,1-5.7,1c-2.9,0-5.1-0.8-6.8-2.5c-1.6-1.6-2.5-4-2.5-7.1s1.1-5.4,3.3-6.9
		c2.2-1.5,5.6-2.4,10.1-2.5l5.2-0.2v-1.3c0-3-1.6-4.6-4.7-4.6c-2.4,0-5.2,0.7-8.5,2.2L-83.5,401.4z M-77.9,420.4
		c0,2.3,1.3,3.5,4,3.5c1.9,0,3.4-0.5,4.6-1.6c1.1-1.1,1.7-2.5,1.7-4.4v-2.5l-3.2,0.1c-2.4,0.1-4.2,0.5-5.3,1.3
		C-77.3,417.6-77.9,418.8-77.9,420.4z"/>
	<path class="st1" d="M-40.4,399.3h8.4v6.1h-8.4v14.5c0,1.1,0.3,2,1,2.6s1.6,0.9,2.8,0.9c1.3,0,2.9-0.3,4.9-0.9v6.1
		c-2,0.9-4.6,1.4-7.7,1.4s-5.4-0.8-6.9-2.5c-1.5-1.6-2.3-4.1-2.3-7.5v-14.6h-3.9v-3.5l4.5-2.7l2.4-6.3h5.2V399.3z"/>
</g>
</svg>
