<?xml version="1.0" encoding="utf-8"?>
<!-- Generator: Adobe Illustrator 19.1.0, SVG Export Plug-In . SVG Version: 6.00 Build 0)  -->
<svg version="1.1" id="Layer_1" xmlns="http://www.w3.org/2000/svg" xmlns:xlink="http://www.w3.org/1999/xlink" x="0px" y="0px"
	 viewBox="-621 355.7 35.8 90.3" style="enable-background:new -621 355.7 35.8 90.3;" xml:space="preserve">
<style type="text/css">
	.st0{opacity:0.6;fill:#E2393E;enable-background:new    ;}
	.st1{fill:#FFFFFF;}
	.st2{fill:none;stroke:#FFFFFF;stroke-width:3;stroke-miterlimit:10;}
</style>
<rect x="-386" y="1325.7" class="st0" width="480" height="218"/>
<g>
	<g>
		<g>
			<path class="st1" d="M-199.6,1456.5c-5.7,0-10.1-1.7-13.1-5.2s-4.5-8.4-4.5-14.9c0-0.1,0-0.2,0-0.3c0-3.9,0.7-7.4,2.2-10.5
				c1.5-3.1,3.6-5.4,6.4-7c2.8-1.6,5.9-2.5,9.5-2.5c0.1,0,0.2,0,0.3,0c3.8,0,7.7,0.9,11.5,2.8l-2.7,6.8c-3.6-1.7-6.6-2.6-8.8-2.6
				c-3.1,0-5.6,1.2-7.3,3.5c-1.7,2.4-2.6,5.6-2.6,9.8c0,8.8,3.3,13.1,9.9,13.1c2.7,0,6.1-0.7,10-2.1v7
				C-192,1455.8-195.6,1456.5-199.6,1456.5z"/>
			<path class="st1" d="M-166.4,1425.4c2.8,0,5.2,0.6,7.4,1.9c2.2,1.2,3.9,3,5,5.4c1.2,2.3,1.8,5,1.8,8c0,0.1,0,0.2,0,0.3
				c0,4.9-1.3,8.7-3.9,11.5s-6.2,4.1-10.8,4.1c-0.1,0-0.2,0-0.2,0c-2.8,0-5.2-0.6-7.4-1.9c-2.2-1.3-3.9-3.1-5-5.4s-1.8-5-1.8-8
				c0-0.1,0-0.2,0-0.3c0-4.9,1.3-8.7,3.8-11.4c2.6-2.7,6.2-4.1,10.8-4.1C-166.5,1425.4-166.4,1425.4-166.4,1425.4z M-162,1434.1
				c-1-1.5-2.6-2.2-4.7-2.2s-3.7,0.7-4.7,2.2s-1.5,3.7-1.5,6.7s0.5,5.3,1.5,6.8s2.6,2.2,4.7,2.2s3.7-0.7,4.7-2.2s1.5-3.7,1.5-6.8
				C-160.5,1437.9-161,1435.6-162,1434.1z"/>
			<path class="st1" d="M-126.6,1425.4c3.5,0,6.1,0.9,7.9,2.8c1.8,1.9,2.7,4.6,2.7,8.2v19.6h-8.2v-17.5c0-2.2-0.4-3.8-1.2-4.9
				c-0.8-1.1-2-1.6-3.7-1.6c-2.3,0-3.9,0.8-5,2.3c-1,1.5-1.5,4.1-1.5,7.6v14.1h-8.2v-30h6.3l1.1,3.9h0.5c0.9-1.5,2.1-2.6,3.7-3.3
				C-130.5,1425.7-128.7,1425.4-126.6,1425.4z"/>
			<path class="st1" d="M-96.8,1425.9h8.4v6.1h-8.4v14.5c0,1.1,0.3,2,1,2.6c0.6,0.6,1.6,0.9,2.8,0.9c1.3,0,2.9-0.3,4.9-0.9v6.1
				c-2,0.9-4.6,1.4-7.7,1.4s-5.4-0.8-6.9-2.5c-1.5-1.6-2.3-4.1-2.3-7.5v-14.5h-3.9v-3.5l4.5-2.7l2.4-6.3h5.2V1425.9z"/>
			<path class="st1" d="M-79.6,1428c3.5-1.8,7.3-2.7,11.4-2.7c4.1,0,7.3,0.9,9.4,2.7c2.1,1.8,3.2,4.4,3.2,8v20h-5.7l-1.6-4.1h-0.2
				c-1.4,1.8-2.8,3-4.2,3.6c-1.5,0.7-3.4,1-5.7,1c-2.9,0-5.1-0.8-6.8-2.5c-1.6-1.6-2.5-4-2.5-7.1c0-3.1,1.1-5.4,3.3-6.9
				s5.6-2.4,10.1-2.5l5.2-0.2v-1.3c0-3-1.6-4.6-4.7-4.6c-2.4,0-5.2,0.7-8.5,2.2L-79.6,1428z M-73.9,1447c0,2.3,1.3,3.5,4,3.5
				c1.9,0,3.4-0.5,4.6-1.6c1.1-1.1,1.7-2.5,1.7-4.4v-2.5l-3.2,0.1c-2.4,0.1-4.2,0.5-5.3,1.3S-73.9,1445.4-73.9,1447z"/>
			<path class="st1" d="M-33.3,1456.5c-9.3,0-14-5.1-14-15.4c0-5.1,1.3-9,3.8-11.7s6.2-4.1,10.9-4.1c3.5,0,6.6,0.7,9.3,2l-2.4,6.3
				c-2.9-1.2-5.2-1.8-6.9-1.8c-4.3,0-6.4,3-6.4,8.9c0,5.9,2.1,8.9,6.4,8.9c3,0,5.8-0.9,8.4-2.6v7c-1.4,0.9-2.7,1.5-4,1.7
				C-29.5,1456.3-31.2,1456.5-33.3,1456.5z"/>
			<path class="st1" d="M-6.5,1425.9h8.4v6.1h-8.4v14.5c0,1.1,0.3,2,1,2.6c0.6,0.6,1.6,0.9,2.8,0.9c1.3,0,2.9-0.3,4.9-0.9v6.1
				c-2,0.9-4.6,1.4-7.7,1.4s-5.4-0.8-6.9-2.5c-1.5-1.6-2.3-4.1-2.3-7.5v-14.5h-3.9v-3.5l4.5-2.7l2.4-6.3h5.2V1425.9z"/>
			<path class="st1" d="M18.4,1450.5c3,0,4.5-0.9,4.5-2.6c0-0.9-0.4-1.6-1.2-2.1s-2.6-1.4-5.3-2.6c-2.3-1-4-1.9-5.1-2.7
				c-1.1-0.8-1.9-1.8-2.3-2.8s-0.7-2.4-0.7-3.9c0-2.7,1-4.7,3.1-6.2s5-2.2,8.7-2.2s7.3,0.8,10.7,2.4l-2.5,5.9
				c-1.7-0.7-3.2-1.3-4.5-1.7s-2.5-0.6-3.7-0.6c-2.4,0-3.6,0.7-3.6,2c0,0.7,0.4,1.4,1.2,1.9s2.4,1.3,4.9,2.3s4.3,1.9,5.4,2.7
				c2.1,1.6,3.2,3.9,3.2,6.9s-1.1,5.3-3.2,6.9c-2.1,1.6-5.3,2.4-9.3,2.4c-4.1,0-7.5-0.6-10.2-1.7v-6.8c1.5,0.7,3.3,1.3,5.2,1.8
				C15.2,1450.2,16.9,1450.5,18.4,1450.5z"/>
		</g>
		<g>
			<path class="st1" d="M-199.6,1456.5c-5.7,0-10.1-1.7-13.1-5.2s-4.5-8.4-4.5-14.9c0-0.1,0-0.2,0-0.3c0-3.9,0.7-7.4,2.2-10.5
				c1.5-3.1,3.6-5.4,6.4-7c2.8-1.6,5.9-2.5,9.5-2.5c0.1,0,0.2,0,0.3,0c3.8,0,7.7,0.9,11.5,2.8l-2.7,6.8c-3.6-1.7-6.6-2.6-8.8-2.6
				c-3.1,0-5.6,1.2-7.3,3.5c-1.7,2.4-2.6,5.6-2.6,9.8c0,8.8,3.3,13.1,9.9,13.1c2.7,0,6.1-0.7,10-2.1v7
				C-192,1455.8-195.6,1456.5-199.6,1456.5z"/>
			<path class="st1" d="M-166.4,1425.4c2.8,0,5.2,0.6,7.4,1.9c2.2,1.2,3.9,3,5,5.4c1.2,2.3,1.8,5,1.8,8c0,0.1,0,0.2,0,0.3
				c0,4.9-1.3,8.7-3.9,11.5s-6.2,4.1-10.8,4.1c-0.1,0-0.2,0-0.2,0c-2.8,0-5.2-0.6-7.4-1.9c-2.2-1.3-3.9-3.1-5-5.4s-1.8-5-1.8-8
				c0-0.1,0-0.2,0-0.3c0-4.9,1.3-8.7,3.8-11.4c2.6-2.7,6.2-4.1,10.8-4.1C-166.5,1425.4-166.4,1425.4-166.4,1425.4z M-162,1434.1
				c-1-1.5-2.6-2.2-4.7-2.2s-3.7,0.7-4.7,2.2s-1.5,3.7-1.5,6.7s0.5,5.3,1.5,6.8s2.6,2.2,4.7,2.2s3.7-0.7,4.7-2.2s1.5-3.7,1.5-6.8
				C-160.5,1437.9-161,1435.6-162,1434.1z"/>
			<path class="st1" d="M-126.6,1425.4c3.5,0,6.1,0.9,7.9,2.8c1.8,1.9,2.7,4.6,2.7,8.2v19.6h-8.2v-17.5c0-2.2-0.4-3.8-1.2-4.9
				c-0.8-1.1-2-1.6-3.7-1.6c-2.3,0-3.9,0.8-5,2.3c-1,1.5-1.5,4.1-1.5,7.6v14.1h-8.2v-30h6.3l1.1,3.9h0.5c0.9-1.5,2.1-2.6,3.7-3.3
				C-130.5,1425.7-128.7,1425.4-126.6,1425.4z"/>
			<path class="st1" d="M-96.8,1425.9h8.4v6.1h-8.4v14.5c0,1.1,0.3,2,1,2.6c0.6,0.6,1.6,0.9,2.8,0.9c1.3,0,2.9-0.3,4.9-0.9v6.1
				c-2,0.9-4.6,1.4-7.7,1.4s-5.4-0.8-6.9-2.5c-1.5-1.6-2.3-4.1-2.3-7.5v-14.5h-3.9v-3.5l4.5-2.7l2.4-6.3h5.2V1425.9z"/>
			<path class="st1" d="M-79.6,1428c3.5-1.8,7.3-2.7,11.4-2.7c4.1,0,7.3,0.9,9.4,2.7c2.1,1.8,3.2,4.4,3.2,8v20h-5.7l-1.6-4.1h-0.2
				c-1.4,1.8-2.8,3-4.2,3.6c-1.5,0.7-3.4,1-5.7,1c-2.9,0-5.1-0.8-6.8-2.5c-1.6-1.6-2.5-4-2.5-7.1c0-3.1,1.1-5.4,3.3-6.9
				s5.6-2.4,10.1-2.5l5.2-0.2v-1.3c0-3-1.6-4.6-4.7-4.6c-2.4,0-5.2,0.7-8.5,2.2L-79.6,1428z M-73.9,1447c0,2.3,1.3,3.5,4,3.5
				c1.9,0,3.4-0.5,4.6-1.6c1.1-1.1,1.7-2.5,1.7-4.4v-2.5l-3.2,0.1c-2.4,0.1-4.2,0.5-5.3,1.3S-73.9,1445.4-73.9,1447z"/>
			<path class="st1" d="M-33.3,1456.5c-9.3,0-14-5.1-14-15.4c0-5.1,1.3-9,3.8-11.7s6.2-4.1,10.9-4.1c3.5,0,6.6,0.7,9.3,2l-2.4,6.3
				c-2.9-1.2-5.2-1.8-6.9-1.8c-4.3,0-6.4,3-6.4,8.9c0,5.9,2.1,8.9,6.4,8.9c3,0,5.8-0.9,8.4-2.6v7c-1.4,0.9-2.7,1.5-4,1.7
				C-29.5,1456.3-31.2,1456.5-33.3,1456.5z"/>
			<path class="st1" d="M-6.5,1425.9h8.4v6.1h-8.4v14.5c0,1.1,0.3,2,1,2.6c0.6,0.6,1.6,0.9,2.8,0.9c1.3,0,2.9-0.3,4.9-0.9v6.1
				c-2,0.9-4.6,1.4-7.7,1.4s-5.4-0.8-6.9-2.5c-1.5-1.6-2.3-4.1-2.3-7.5v-14.5h-3.9v-3.5l4.5-2.7l2.4-6.3h5.2V1425.9z"/>
			<path class="st1" d="M18.4,1450.5c3,0,4.5-0.9,4.5-2.6c0-0.9-0.4-1.6-1.2-2.1s-2.6-1.4-5.3-2.6c-2.3-1-4-1.9-5.1-2.7
				c-1.1-0.8-1.9-1.8-2.3-2.8s-0.7-2.4-0.7-3.9c0-2.7,1-4.7,3.1-6.2s5-2.2,8.7-2.2s7.3,0.8,10.7,2.4l-2.5,5.9
				c-1.7-0.7-3.2-1.3-4.5-1.7s-2.5-0.6-3.7-0.6c-2.4,0-3.6,0.7-3.6,2c0,0.7,0.4,1.4,1.2,1.9s2.4,1.3,4.9,2.3s4.3,1.9,5.4,2.7
				c2.1,1.6,3.2,3.9,3.2,6.9s-1.1,5.3-3.2,6.9c-2.1,1.6-5.3,2.4-9.3,2.4c-4.1,0-7.5-0.6-10.2-1.7v-6.8c1.5,0.7,3.3,1.3,5.2,1.8
				C15.2,1450.2,16.9,1450.5,18.4,1450.5z"/>
		</g>
	</g>
	<g>
		<g id="User_5_">
			<g>
				<path class="st1" d="M-279.8,1458c14,0,25.4-13.9,25.4-31c0-17.1-11.4-31-25.4-31c-6.9,0-13.3,3.3-18.1,9.3
					c-4.7,5.8-7.2,13.5-7.2,21.7C-305.2,1444.1-293.8,1458-279.8,1458z M-279.8,1401.7c10.9,0,19.7,11.4,19.7,25.4
					s-8.9,25.4-19.7,25.4c-10.9,0-19.7-11.4-19.7-25.4C-299.6,1413-290.7,1401.7-279.8,1401.7z M-260.1,1452.4
					c-1.6,0-2.8,1.3-2.8,2.8s1.3,2.8,2.8,2.8c10.9,0,19.7,8.9,19.7,19.7c0,1.6-1.3,2.8-2.8,2.8h-73.3c-1.6,0-2.8-1.3-2.8-2.8
					c0-10.9,8.9-19.7,19.7-19.7c1.6,0,2.8-1.3,2.8-2.8s-1.3-2.8-2.8-2.8c-14,0-25.4,11.4-25.4,25.4c0,4.7,3.8,8.5,8.5,8.5h73.3
					c4.7,0,8.5-3.8,8.5-8.5C-234.7,1463.8-246.1,1452.4-260.1,1452.4z"/>
			</g>
		</g>
	</g>
</g>
<g>
	
		<image style="overflow:visible;opacity:0.75;" width="28" height="81" xlink:href="7A1C1934.png"  transform="matrix(1 0 0 1 -616 362)">
	</image>
	<g>
		<g>
			<polygon class="st2" points="-597.1,413.2 -594.8,366.1 -611.3,366.1 -609,413.2 			"/>
			<path class="st2" d="M-603,418.4c-5.5,0-9.4,3.9-9.4,9.5c0,5.4,3.7,9.5,9.2,9.5h0.2c5.6,0,9.3-4.1,9.3-9.5
				C-593.9,422.3-597.5,418.4-603,418.4z"/>
		</g>
	</g>
</g>
</svg>
