<?xml version="1.0" encoding="utf-8"?>
<!-- Generator: Adobe Illustrator 19.1.0, SVG Export Plug-In . SVG Version: 6.00 Build 0)  -->
<svg version="1.1" id="Layer_1" xmlns="http://www.w3.org/2000/svg" xmlns:xlink="http://www.w3.org/1999/xlink" x="0px" y="0px"
	 viewBox="0 0 480 218" style="enable-background:new 0 0 480 218;" xml:space="preserve">
<style type="text/css">
	.st0{opacity:0.6;fill:#E2393E;}
	.st1{fill:#FFFFFF;}
	.st2{fill:#E2393E;}
</style>
<rect x="479.9" y="1050.8" class="st0" width="480" height="218"/>
<g>
	<g>
		<g>
			<path class="st1" d="M666.3,1181.5c-5.7,0-10.1-1.7-13.1-5.2c-3-3.5-4.5-8.4-4.5-14.9c0-0.1,0-0.2,0-0.3c0-3.9,0.7-7.4,2.2-10.5
				c1.5-3.1,3.6-5.4,6.4-7c2.8-1.6,5.9-2.5,9.5-2.5c0.1,0,0.2,0,0.3,0c3.8,0,7.7,0.9,11.5,2.8l-2.7,6.8c-3.6-1.7-6.6-2.6-8.8-2.6
				c-3.1,0-5.6,1.2-7.3,3.5c-1.7,2.4-2.6,5.6-2.6,9.8c0,8.8,3.3,13.1,9.9,13.1c2.7,0,6.1-0.7,10-2.1v7
				C673.9,1180.8,670.3,1181.5,666.3,1181.5z"/>
			<path class="st1" d="M699.5,1150.4c2.8,0,5.2,0.6,7.4,1.9c2.2,1.2,3.9,3,5,5.4c1.2,2.3,1.8,5,1.8,8c0,0.1,0,0.2,0,0.3
				c0,4.9-1.3,8.7-3.9,11.5s-6.2,4.1-10.8,4.1c-0.1,0-0.2,0-0.2,0c-2.8,0-5.2-0.6-7.4-1.9c-2.2-1.3-3.9-3.1-5-5.4s-1.8-5-1.8-8
				c0-0.1,0-0.2,0-0.3c0-4.9,1.3-8.7,3.8-11.4c2.6-2.7,6.2-4.1,10.8-4.1C699.3,1150.4,699.4,1150.4,699.5,1150.4z M703.9,1159.2
				c-1-1.5-2.6-2.2-4.7-2.2s-3.7,0.7-4.7,2.2c-1,1.5-1.5,3.7-1.5,6.7c0,3,0.5,5.3,1.5,6.8c1,1.5,2.6,2.2,4.7,2.2s3.7-0.7,4.7-2.2
				c1-1.5,1.5-3.7,1.5-6.8C705.3,1162.9,704.9,1160.6,703.9,1159.2z"/>
			<path class="st1" d="M739.2,1150.4c3.5,0,6.1,0.9,7.9,2.8c1.8,1.9,2.7,4.6,2.7,8.2v19.6h-8.2v-17.5c0-2.2-0.4-3.8-1.2-4.9
				c-0.8-1.1-2-1.6-3.7-1.6c-2.3,0-3.9,0.8-5,2.3c-1,1.5-1.5,4.1-1.5,7.6v14.1h-8.2v-30h6.3l1.1,3.9h0.5c0.9-1.5,2.1-2.6,3.7-3.3
				C735.3,1150.8,737.2,1150.4,739.2,1150.4z"/>
			<path class="st1" d="M769,1150.9h8.4v6.1H769v14.5c0,1.1,0.3,2,1,2.6c0.6,0.6,1.6,0.9,2.8,0.9c1.3,0,2.9-0.3,4.9-0.9v6.1
				c-2,0.9-4.6,1.4-7.7,1.4s-5.4-0.8-6.9-2.5c-1.5-1.6-2.3-4.1-2.3-7.5v-14.5h-3.9v-3.5l4.5-2.7l2.4-6.3h5.2V1150.9z"/>
			<path class="st1" d="M786.3,1153c3.5-1.8,7.3-2.7,11.4-2.7c4.1,0,7.3,0.9,9.4,2.7c2.1,1.8,3.2,4.4,3.2,8v20h-5.7l-1.6-4.1h-0.2
				c-1.4,1.8-2.8,3-4.2,3.6c-1.5,0.7-3.4,1-5.7,1c-2.9,0-5.1-0.8-6.8-2.5c-1.6-1.6-2.5-4-2.5-7.1c0-3.1,1.1-5.4,3.3-6.9
				c2.2-1.5,5.6-2.4,10.1-2.5l5.2-0.2v-1.3c0-3-1.6-4.6-4.7-4.6c-2.4,0-5.2,0.7-8.5,2.2L786.3,1153z M791.9,1172.1
				c0,2.3,1.3,3.5,4,3.5c1.9,0,3.4-0.5,4.6-1.6c1.1-1.1,1.7-2.5,1.7-4.4v-2.5l-3.2,0.1c-2.4,0.1-4.2,0.5-5.3,1.3
				S791.9,1170.4,791.9,1172.1z"/>
			<path class="st1" d="M832.6,1181.5c-9.3,0-14-5.1-14-15.4c0-5.1,1.3-9,3.8-11.7s6.2-4.1,10.9-4.1c3.5,0,6.6,0.7,9.3,2l-2.4,6.3
				c-2.9-1.2-5.2-1.8-6.9-1.8c-4.3,0-6.4,3-6.4,8.9s2.1,8.9,6.4,8.9c3,0,5.8-0.9,8.4-2.6v7c-1.4,0.9-2.7,1.5-4,1.7
				C836.3,1181.3,834.6,1181.5,832.6,1181.5z"/>
			<path class="st1" d="M859.4,1150.9h8.4v6.1h-8.4v14.5c0,1.1,0.3,2,1,2.6c0.6,0.6,1.6,0.9,2.8,0.9c1.3,0,2.9-0.3,4.9-0.9v6.1
				c-2,0.9-4.6,1.4-7.7,1.4s-5.4-0.8-6.9-2.5c-1.5-1.6-2.3-4.1-2.3-7.5v-14.5h-3.9v-3.5l4.5-2.7l2.4-6.3h5.2V1150.9z"/>
			<path class="st1" d="M884.2,1175.5c3,0,4.5-0.9,4.5-2.6c0-0.9-0.4-1.6-1.2-2.1c-0.8-0.5-2.6-1.4-5.3-2.6c-2.3-1-4-1.9-5.1-2.7
				c-1.1-0.8-1.9-1.8-2.3-2.8s-0.7-2.4-0.7-3.9c0-2.7,1-4.7,3.1-6.2c2.1-1.5,5-2.2,8.7-2.2c3.7,0,7.3,0.8,10.7,2.4l-2.5,5.9
				c-1.7-0.7-3.2-1.3-4.5-1.7s-2.5-0.6-3.7-0.6c-2.4,0-3.6,0.7-3.6,2c0,0.7,0.4,1.4,1.2,1.9c0.8,0.5,2.4,1.3,4.9,2.3
				c2.5,1,4.3,1.9,5.4,2.7c2.1,1.6,3.2,3.9,3.2,6.9c0,3-1.1,5.3-3.2,6.9c-2.1,1.6-5.3,2.4-9.3,2.4c-4.1,0-7.5-0.6-10.2-1.7v-6.8
				c1.5,0.7,3.3,1.3,5.2,1.8C881.1,1175.3,882.8,1175.5,884.2,1175.5z"/>
		</g>
		<g>
			<path class="st1" d="M666.3,1181.5c-5.7,0-10.1-1.7-13.1-5.2c-3-3.5-4.5-8.4-4.5-14.9c0-0.1,0-0.2,0-0.3c0-3.9,0.7-7.4,2.2-10.5
				c1.5-3.1,3.6-5.4,6.4-7c2.8-1.6,5.9-2.5,9.5-2.5c0.1,0,0.2,0,0.3,0c3.8,0,7.7,0.9,11.5,2.8l-2.7,6.8c-3.6-1.7-6.6-2.6-8.8-2.6
				c-3.1,0-5.6,1.2-7.3,3.5c-1.7,2.4-2.6,5.6-2.6,9.8c0,8.8,3.3,13.1,9.9,13.1c2.7,0,6.1-0.7,10-2.1v7
				C673.9,1180.8,670.3,1181.5,666.3,1181.5z"/>
			<path class="st1" d="M699.5,1150.4c2.8,0,5.2,0.6,7.4,1.9c2.2,1.2,3.9,3,5,5.4c1.2,2.3,1.8,5,1.8,8c0,0.1,0,0.2,0,0.3
				c0,4.9-1.3,8.7-3.9,11.5s-6.2,4.1-10.8,4.1c-0.1,0-0.2,0-0.2,0c-2.8,0-5.2-0.6-7.4-1.9c-2.2-1.3-3.9-3.1-5-5.4s-1.8-5-1.8-8
				c0-0.1,0-0.2,0-0.3c0-4.9,1.3-8.7,3.8-11.4c2.6-2.7,6.2-4.1,10.8-4.1C699.3,1150.4,699.4,1150.4,699.5,1150.4z M703.9,1159.2
				c-1-1.5-2.6-2.2-4.7-2.2s-3.7,0.7-4.7,2.2c-1,1.5-1.5,3.7-1.5,6.7c0,3,0.5,5.3,1.5,6.8c1,1.5,2.6,2.2,4.7,2.2s3.7-0.7,4.7-2.2
				c1-1.5,1.5-3.7,1.5-6.8C705.3,1162.9,704.9,1160.6,703.9,1159.2z"/>
			<path class="st1" d="M739.2,1150.4c3.5,0,6.1,0.9,7.9,2.8c1.8,1.9,2.7,4.6,2.7,8.2v19.6h-8.2v-17.5c0-2.2-0.4-3.8-1.2-4.9
				c-0.8-1.1-2-1.6-3.7-1.6c-2.3,0-3.9,0.8-5,2.3c-1,1.5-1.5,4.1-1.5,7.6v14.1h-8.2v-30h6.3l1.1,3.9h0.5c0.9-1.5,2.1-2.6,3.7-3.3
				C735.3,1150.8,737.2,1150.4,739.2,1150.4z"/>
			<path class="st1" d="M769,1150.9h8.4v6.1H769v14.5c0,1.1,0.3,2,1,2.6c0.6,0.6,1.6,0.9,2.8,0.9c1.3,0,2.9-0.3,4.9-0.9v6.1
				c-2,0.9-4.6,1.4-7.7,1.4s-5.4-0.8-6.9-2.5c-1.5-1.6-2.3-4.1-2.3-7.5v-14.5h-3.9v-3.5l4.5-2.7l2.4-6.3h5.2V1150.9z"/>
			<path class="st1" d="M786.3,1153c3.5-1.8,7.3-2.7,11.4-2.7c4.1,0,7.3,0.9,9.4,2.7c2.1,1.8,3.2,4.4,3.2,8v20h-5.7l-1.6-4.1h-0.2
				c-1.4,1.8-2.8,3-4.2,3.6c-1.5,0.7-3.4,1-5.7,1c-2.9,0-5.1-0.8-6.8-2.5c-1.6-1.6-2.5-4-2.5-7.1c0-3.1,1.1-5.4,3.3-6.9
				c2.2-1.5,5.6-2.4,10.1-2.5l5.2-0.2v-1.3c0-3-1.6-4.6-4.7-4.6c-2.4,0-5.2,0.7-8.5,2.2L786.3,1153z M791.9,1172.1
				c0,2.3,1.3,3.5,4,3.5c1.9,0,3.4-0.5,4.6-1.6c1.1-1.1,1.7-2.5,1.7-4.4v-2.5l-3.2,0.1c-2.4,0.1-4.2,0.5-5.3,1.3
				S791.9,1170.4,791.9,1172.1z"/>
			<path class="st1" d="M832.6,1181.5c-9.3,0-14-5.1-14-15.4c0-5.1,1.3-9,3.8-11.7s6.2-4.1,10.9-4.1c3.5,0,6.6,0.7,9.3,2l-2.4,6.3
				c-2.9-1.2-5.2-1.8-6.9-1.8c-4.3,0-6.4,3-6.4,8.9s2.1,8.9,6.4,8.9c3,0,5.8-0.9,8.4-2.6v7c-1.4,0.9-2.7,1.5-4,1.7
				C836.3,1181.3,834.6,1181.5,832.6,1181.5z"/>
			<path class="st1" d="M859.4,1150.9h8.4v6.1h-8.4v14.5c0,1.1,0.3,2,1,2.6c0.6,0.6,1.6,0.9,2.8,0.9c1.3,0,2.9-0.3,4.9-0.9v6.1
				c-2,0.9-4.6,1.4-7.7,1.4s-5.4-0.8-6.9-2.5c-1.5-1.6-2.3-4.1-2.3-7.5v-14.5h-3.9v-3.5l4.5-2.7l2.4-6.3h5.2V1150.9z"/>
			<path class="st1" d="M884.2,1175.5c3,0,4.5-0.9,4.5-2.6c0-0.9-0.4-1.6-1.2-2.1c-0.8-0.5-2.6-1.4-5.3-2.6c-2.3-1-4-1.9-5.1-2.7
				c-1.1-0.8-1.9-1.8-2.3-2.8s-0.7-2.4-0.7-3.9c0-2.7,1-4.7,3.1-6.2c2.1-1.5,5-2.2,8.7-2.2c3.7,0,7.3,0.8,10.7,2.4l-2.5,5.9
				c-1.7-0.7-3.2-1.3-4.5-1.7s-2.5-0.6-3.7-0.6c-2.4,0-3.6,0.7-3.6,2c0,0.7,0.4,1.4,1.2,1.9c0.8,0.5,2.4,1.3,4.9,2.3
				c2.5,1,4.3,1.9,5.4,2.7c2.1,1.6,3.2,3.9,3.2,6.9c0,3-1.1,5.3-3.2,6.9c-2.1,1.6-5.3,2.4-9.3,2.4c-4.1,0-7.5-0.6-10.2-1.7v-6.8
				c1.5,0.7,3.3,1.3,5.2,1.8C881.1,1175.3,882.8,1175.5,884.2,1175.5z"/>
		</g>
	</g>
	<g>
		<g id="User_5_">
			<g>
				<path class="st1" d="M586,1183.1c14,0,25.4-13.9,25.4-31s-11.4-31-25.4-31c-6.9,0-13.3,3.3-18.1,9.3c-4.7,5.8-7.2,13.5-7.2,21.7
					C560.6,1169.1,572,1183.1,586,1183.1z M586,1126.7c10.9,0,19.7,11.4,19.7,25.4c0,14-8.9,25.4-19.7,25.4
					c-10.9,0-19.7-11.4-19.7-25.4C566.3,1138.1,575.1,1126.7,586,1126.7z M605.8,1177.4c-1.6,0-2.8,1.3-2.8,2.8s1.3,2.8,2.8,2.8
					c10.9,0,19.7,8.9,19.7,19.7c0,1.6-1.3,2.8-2.8,2.8h-73.3c-1.6,0-2.8-1.3-2.8-2.8c0-10.9,8.9-19.7,19.7-19.7
					c1.6,0,2.8-1.3,2.8-2.8s-1.3-2.8-2.8-2.8c-14,0-25.4,11.4-25.4,25.4c0,4.7,3.8,8.5,8.5,8.5h73.3c4.7,0,8.5-3.8,8.5-8.5
					C631.1,1188.8,619.7,1177.4,605.8,1177.4z"/>
			</g>
		</g>
	</g>
</g>
<g>
	<g>
		<g>
			<path class="st1" d="M186.3,131.5c-5.7,0-10.1-1.7-13.1-5.2c-3-3.5-4.5-8.4-4.5-14.9c0-0.1,0-0.2,0-0.3c0-3.9,0.7-7.4,2.2-10.5
				c1.5-3.1,3.6-5.4,6.4-7c2.8-1.6,5.9-2.5,9.5-2.5c0.1,0,0.2,0,0.3,0c3.8,0,7.7,0.9,11.5,2.8l-2.7,6.8c-3.6-1.7-6.6-2.6-8.8-2.6
				c-3.1,0-5.6,1.2-7.3,3.5c-1.7,2.4-2.6,5.6-2.6,9.8c0,8.8,3.3,13.1,9.9,13.1c2.7,0,6.1-0.7,10-2.1v7
				C193.9,130.8,190.3,131.5,186.3,131.5z"/>
			<path class="st1" d="M219.5,100.4c2.8,0,5.2,0.6,7.4,1.9c2.2,1.2,3.9,3,5,5.4c1.2,2.3,1.8,5,1.8,8c0,0.1,0,0.2,0,0.3
				c0,4.9-1.3,8.7-3.9,11.5s-6.2,4.1-10.8,4.1c-0.1,0-0.2,0-0.2,0c-2.8,0-5.2-0.6-7.4-1.9c-2.2-1.3-3.9-3.1-5-5.4s-1.8-5-1.8-8
				c0-0.1,0-0.2,0-0.3c0-4.9,1.3-8.7,3.8-11.4c2.6-2.7,6.2-4.1,10.8-4.1C219.3,100.4,219.4,100.4,219.5,100.4z M223.9,109.2
				c-1-1.5-2.6-2.2-4.7-2.2s-3.7,0.7-4.7,2.2c-1,1.5-1.5,3.7-1.5,6.7c0,3,0.5,5.3,1.5,6.8c1,1.5,2.6,2.2,4.7,2.2s3.7-0.7,4.7-2.2
				c1-1.5,1.5-3.7,1.5-6.8C225.3,112.9,224.9,110.6,223.9,109.2z"/>
			<path class="st1" d="M259.2,100.4c3.5,0,6.1,0.9,7.9,2.8c1.8,1.9,2.7,4.6,2.7,8.2V131h-8.2v-17.5c0-2.2-0.4-3.8-1.2-4.9
				c-0.8-1.1-2-1.6-3.7-1.6c-2.3,0-3.9,0.8-5,2.3c-1,1.5-1.5,4.1-1.5,7.6V131h-8.2v-30h6.3l1.1,3.9h0.5c0.9-1.5,2.1-2.6,3.7-3.3
				C255.3,100.8,257.2,100.4,259.2,100.4z"/>
			<path class="st1" d="M289,100.9h8.4v6.1H289v14.5c0,1.1,0.3,2,1,2.6c0.6,0.6,1.6,0.9,2.8,0.9c1.3,0,2.9-0.3,4.9-0.9v6.1
				c-2,0.9-4.6,1.4-7.7,1.4s-5.4-0.8-6.9-2.5c-1.5-1.6-2.3-4.1-2.3-7.5v-14.5h-3.9v-3.5l4.5-2.7l2.4-6.3h5.2V100.9z"/>
			<path class="st1" d="M306.3,103c3.5-1.8,7.3-2.7,11.4-2.7c4.1,0,7.3,0.9,9.4,2.7c2.1,1.8,3.2,4.4,3.2,8v20h-5.7l-1.6-4.1h-0.2
				c-1.4,1.8-2.8,3-4.2,3.6c-1.5,0.7-3.4,1-5.7,1c-2.9,0-5.1-0.8-6.8-2.5c-1.6-1.6-2.5-4-2.5-7.1c0-3.1,1.1-5.4,3.3-6.9
				c2.2-1.5,5.6-2.4,10.1-2.5l5.2-0.2V111c0-3-1.6-4.6-4.7-4.6c-2.4,0-5.2,0.7-8.5,2.2L306.3,103z M311.9,122.1c0,2.3,1.3,3.5,4,3.5
				c1.9,0,3.4-0.5,4.6-1.6c1.1-1.1,1.7-2.5,1.7-4.4v-2.5l-3.2,0.1c-2.4,0.1-4.2,0.5-5.3,1.3S311.9,120.4,311.9,122.1z"/>
			<path class="st1" d="M352.6,131.5c-9.3,0-14-5.1-14-15.4c0-5.1,1.3-9,3.8-11.7c2.5-2.7,6.2-4.1,10.9-4.1c3.5,0,6.6,0.7,9.3,2
				l-2.4,6.3c-2.9-1.2-5.2-1.8-6.9-1.8c-4.3,0-6.4,3-6.4,8.9c0,6,2.1,8.9,6.4,8.9c3,0,5.8-0.9,8.4-2.6v7c-1.4,0.9-2.7,1.5-4,1.7
				C356.3,131.3,354.6,131.5,352.6,131.5z"/>
			<path class="st1" d="M379.4,100.9h8.4v6.1h-8.4v14.5c0,1.1,0.3,2,1,2.6c0.6,0.6,1.6,0.9,2.8,0.9c1.3,0,2.9-0.3,4.9-0.9v6.1
				c-2,0.9-4.6,1.4-7.7,1.4s-5.4-0.8-6.9-2.5c-1.5-1.6-2.3-4.1-2.3-7.5v-14.5h-3.9v-3.5l4.5-2.7l2.4-6.3h5.2V100.9z"/>
			<path class="st1" d="M404.2,125.5c3,0,4.5-0.9,4.5-2.6c0-0.9-0.4-1.6-1.2-2.1c-0.8-0.5-2.6-1.4-5.3-2.6c-2.3-1-4-1.9-5.1-2.7
				c-1.1-0.8-1.9-1.8-2.3-2.8s-0.7-2.4-0.7-3.9c0-2.7,1-4.7,3.1-6.2c2.1-1.5,5-2.2,8.7-2.2c3.7,0,7.3,0.8,10.7,2.4l-2.5,5.9
				c-1.7-0.7-3.2-1.3-4.5-1.7c-1.2-0.4-2.5-0.6-3.7-0.6c-2.4,0-3.6,0.7-3.6,2c0,0.7,0.4,1.4,1.2,1.9c0.8,0.5,2.4,1.3,4.9,2.3
				c2.5,1,4.3,1.9,5.4,2.7c2.1,1.6,3.2,3.9,3.2,6.9c0,3-1.1,5.3-3.2,6.9c-2.1,1.6-5.3,2.4-9.3,2.4c-4.1,0-7.5-0.6-10.2-1.7V123
				c1.5,0.7,3.3,1.3,5.2,1.8C401.1,125.3,402.8,125.5,404.2,125.5z"/>
		</g>
		<g>
			<path class="st1" d="M186.3,131.5c-5.7,0-10.1-1.7-13.1-5.2c-3-3.5-4.5-8.4-4.5-14.9c0-0.1,0-0.2,0-0.3c0-3.9,0.7-7.4,2.2-10.5
				c1.5-3.1,3.6-5.4,6.4-7c2.8-1.6,5.9-2.5,9.5-2.5c0.1,0,0.2,0,0.3,0c3.8,0,7.7,0.9,11.5,2.8l-2.7,6.8c-3.6-1.7-6.6-2.6-8.8-2.6
				c-3.1,0-5.6,1.2-7.3,3.5c-1.7,2.4-2.6,5.6-2.6,9.8c0,8.8,3.3,13.1,9.9,13.1c2.7,0,6.1-0.7,10-2.1v7
				C193.9,130.8,190.3,131.5,186.3,131.5z"/>
			<path class="st1" d="M219.5,100.4c2.8,0,5.2,0.6,7.4,1.9c2.2,1.2,3.9,3,5,5.4c1.2,2.3,1.8,5,1.8,8c0,0.1,0,0.2,0,0.3
				c0,4.9-1.3,8.7-3.9,11.5s-6.2,4.1-10.8,4.1c-0.1,0-0.2,0-0.2,0c-2.8,0-5.2-0.6-7.4-1.9c-2.2-1.3-3.9-3.1-5-5.4s-1.8-5-1.8-8
				c0-0.1,0-0.2,0-0.3c0-4.9,1.3-8.7,3.8-11.4c2.6-2.7,6.2-4.1,10.8-4.1C219.3,100.4,219.4,100.4,219.5,100.4z M223.9,109.2
				c-1-1.5-2.6-2.2-4.7-2.2s-3.7,0.7-4.7,2.2c-1,1.5-1.5,3.7-1.5,6.7c0,3,0.5,5.3,1.5,6.8c1,1.5,2.6,2.2,4.7,2.2s3.7-0.7,4.7-2.2
				c1-1.5,1.5-3.7,1.5-6.8C225.3,112.9,224.9,110.6,223.9,109.2z"/>
			<path class="st1" d="M259.2,100.4c3.5,0,6.1,0.9,7.9,2.8c1.8,1.9,2.7,4.6,2.7,8.2V131h-8.2v-17.5c0-2.2-0.4-3.8-1.2-4.9
				c-0.8-1.1-2-1.6-3.7-1.6c-2.3,0-3.9,0.8-5,2.3c-1,1.5-1.5,4.1-1.5,7.6V131h-8.2v-30h6.3l1.1,3.9h0.5c0.9-1.5,2.1-2.6,3.7-3.3
				C255.3,100.8,257.2,100.4,259.2,100.4z"/>
			<path class="st1" d="M289,100.9h8.4v6.1H289v14.5c0,1.1,0.3,2,1,2.6c0.6,0.6,1.6,0.9,2.8,0.9c1.3,0,2.9-0.3,4.9-0.9v6.1
				c-2,0.9-4.6,1.4-7.7,1.4s-5.4-0.8-6.9-2.5c-1.5-1.6-2.3-4.1-2.3-7.5v-14.5h-3.9v-3.5l4.5-2.7l2.4-6.3h5.2V100.9z"/>
			<path class="st1" d="M306.3,103c3.5-1.8,7.3-2.7,11.4-2.7c4.1,0,7.3,0.9,9.4,2.7c2.1,1.8,3.2,4.4,3.2,8v20h-5.7l-1.6-4.1h-0.2
				c-1.4,1.8-2.8,3-4.2,3.6c-1.5,0.7-3.4,1-5.7,1c-2.9,0-5.1-0.8-6.8-2.5c-1.6-1.6-2.5-4-2.5-7.1c0-3.1,1.1-5.4,3.3-6.9
				c2.2-1.5,5.6-2.4,10.1-2.5l5.2-0.2V111c0-3-1.6-4.6-4.7-4.6c-2.4,0-5.2,0.7-8.5,2.2L306.3,103z M311.9,122.1c0,2.3,1.3,3.5,4,3.5
				c1.9,0,3.4-0.5,4.6-1.6c1.1-1.1,1.7-2.5,1.7-4.4v-2.5l-3.2,0.1c-2.4,0.1-4.2,0.5-5.3,1.3S311.9,120.4,311.9,122.1z"/>
			<path class="st1" d="M352.6,131.5c-9.3,0-14-5.1-14-15.4c0-5.1,1.3-9,3.8-11.7c2.5-2.7,6.2-4.1,10.9-4.1c3.5,0,6.6,0.7,9.3,2
				l-2.4,6.3c-2.9-1.2-5.2-1.8-6.9-1.8c-4.3,0-6.4,3-6.4,8.9c0,6,2.1,8.9,6.4,8.9c3,0,5.8-0.9,8.4-2.6v7c-1.4,0.9-2.7,1.5-4,1.7
				C356.3,131.3,354.6,131.5,352.6,131.5z"/>
			<path class="st1" d="M379.4,100.9h8.4v6.1h-8.4v14.5c0,1.1,0.3,2,1,2.6c0.6,0.6,1.6,0.9,2.8,0.9c1.3,0,2.9-0.3,4.9-0.9v6.1
				c-2,0.9-4.6,1.4-7.7,1.4s-5.4-0.8-6.9-2.5c-1.5-1.6-2.3-4.1-2.3-7.5v-14.5h-3.9v-3.5l4.5-2.7l2.4-6.3h5.2V100.9z"/>
			<path class="st1" d="M404.2,125.5c3,0,4.5-0.9,4.5-2.6c0-0.9-0.4-1.6-1.2-2.1c-0.8-0.5-2.6-1.4-5.3-2.6c-2.3-1-4-1.9-5.1-2.7
				c-1.1-0.8-1.9-1.8-2.3-2.8s-0.7-2.4-0.7-3.9c0-2.7,1-4.7,3.1-6.2c2.1-1.5,5-2.2,8.7-2.2c3.7,0,7.3,0.8,10.7,2.4l-2.5,5.9
				c-1.7-0.7-3.2-1.3-4.5-1.7c-1.2-0.4-2.5-0.6-3.7-0.6c-2.4,0-3.6,0.7-3.6,2c0,0.7,0.4,1.4,1.2,1.9c0.8,0.5,2.4,1.3,4.9,2.3
				c2.5,1,4.3,1.9,5.4,2.7c2.1,1.6,3.2,3.9,3.2,6.9c0,3-1.1,5.3-3.2,6.9c-2.1,1.6-5.3,2.4-9.3,2.4c-4.1,0-7.5-0.6-10.2-1.7V123
				c1.5,0.7,3.3,1.3,5.2,1.8C401.1,125.3,402.8,125.5,404.2,125.5z"/>
		</g>
		<g>
			<path class="st1" d="M186.3,131.5c-5.7,0-10.1-1.7-13.1-5.2c-3-3.5-4.5-8.4-4.5-14.9c0-0.1,0-0.2,0-0.3c0-3.9,0.7-7.4,2.2-10.5
				c1.5-3.1,3.6-5.4,6.4-7c2.8-1.6,5.9-2.5,9.5-2.5c0.1,0,0.2,0,0.3,0c3.8,0,7.7,0.9,11.5,2.8l-2.7,6.8c-3.6-1.7-6.6-2.6-8.8-2.6
				c-3.1,0-5.6,1.2-7.3,3.5c-1.7,2.4-2.6,5.6-2.6,9.8c0,8.8,3.3,13.1,9.9,13.1c2.7,0,6.1-0.7,10-2.1v7
				C193.9,130.8,190.3,131.5,186.3,131.5z"/>
			<path class="st1" d="M219.5,100.4c2.8,0,5.2,0.6,7.4,1.9c2.2,1.2,3.9,3,5,5.4c1.2,2.3,1.8,5,1.8,8c0,0.1,0,0.2,0,0.3
				c0,4.9-1.3,8.7-3.9,11.5s-6.2,4.1-10.8,4.1c-0.1,0-0.2,0-0.2,0c-2.8,0-5.2-0.6-7.4-1.9c-2.2-1.3-3.9-3.1-5-5.4s-1.8-5-1.8-8
				c0-0.1,0-0.2,0-0.3c0-4.9,1.3-8.7,3.8-11.4c2.6-2.7,6.2-4.1,10.8-4.1C219.3,100.4,219.4,100.4,219.5,100.4z M223.9,109.2
				c-1-1.5-2.6-2.2-4.7-2.2s-3.7,0.7-4.7,2.2c-1,1.5-1.5,3.7-1.5,6.7c0,3,0.5,5.3,1.5,6.8c1,1.5,2.6,2.2,4.7,2.2s3.7-0.7,4.7-2.2
				c1-1.5,1.5-3.7,1.5-6.8C225.3,112.9,224.9,110.6,223.9,109.2z"/>
			<path class="st1" d="M259.2,100.4c3.5,0,6.1,0.9,7.9,2.8c1.8,1.9,2.7,4.6,2.7,8.2V131h-8.2v-17.5c0-2.2-0.4-3.8-1.2-4.9
				c-0.8-1.1-2-1.6-3.7-1.6c-2.3,0-3.9,0.8-5,2.3c-1,1.5-1.5,4.1-1.5,7.6V131h-8.2v-30h6.3l1.1,3.9h0.5c0.9-1.5,2.1-2.6,3.7-3.3
				C255.3,100.8,257.2,100.4,259.2,100.4z"/>
			<path class="st1" d="M289,100.9h8.4v6.1H289v14.5c0,1.1,0.3,2,1,2.6c0.6,0.6,1.6,0.9,2.8,0.9c1.3,0,2.9-0.3,4.9-0.9v6.1
				c-2,0.9-4.6,1.4-7.7,1.4s-5.4-0.8-6.9-2.5c-1.5-1.6-2.3-4.1-2.3-7.5v-14.5h-3.9v-3.5l4.5-2.7l2.4-6.3h5.2V100.9z"/>
			<path class="st1" d="M306.3,103c3.5-1.8,7.3-2.7,11.4-2.7c4.1,0,7.3,0.9,9.4,2.7c2.1,1.8,3.2,4.4,3.2,8v20h-5.7l-1.6-4.1h-0.2
				c-1.4,1.8-2.8,3-4.2,3.6c-1.5,0.7-3.4,1-5.7,1c-2.9,0-5.1-0.8-6.8-2.5c-1.6-1.6-2.5-4-2.5-7.1c0-3.1,1.1-5.4,3.3-6.9
				c2.2-1.5,5.6-2.4,10.1-2.5l5.2-0.2V111c0-3-1.6-4.6-4.7-4.6c-2.4,0-5.2,0.7-8.5,2.2L306.3,103z M311.9,122.1c0,2.3,1.3,3.5,4,3.5
				c1.9,0,3.4-0.5,4.6-1.6c1.1-1.1,1.7-2.5,1.7-4.4v-2.5l-3.2,0.1c-2.4,0.1-4.2,0.5-5.3,1.3S311.9,120.4,311.9,122.1z"/>
			<path class="st1" d="M352.6,131.5c-9.3,0-14-5.1-14-15.4c0-5.1,1.3-9,3.8-11.7c2.5-2.7,6.2-4.1,10.9-4.1c3.5,0,6.6,0.7,9.3,2
				l-2.4,6.3c-2.9-1.2-5.2-1.8-6.9-1.8c-4.3,0-6.4,3-6.4,8.9c0,6,2.1,8.9,6.4,8.9c3,0,5.8-0.9,8.4-2.6v7c-1.4,0.9-2.7,1.5-4,1.7
				C356.3,131.3,354.6,131.5,352.6,131.5z"/>
			<path class="st1" d="M379.4,100.9h8.4v6.1h-8.4v14.5c0,1.1,0.3,2,1,2.6c0.6,0.6,1.6,0.9,2.8,0.9c1.3,0,2.9-0.3,4.9-0.9v6.1
				c-2,0.9-4.6,1.4-7.7,1.4s-5.4-0.8-6.9-2.5c-1.5-1.6-2.3-4.1-2.3-7.5v-14.5h-3.9v-3.5l4.5-2.7l2.4-6.3h5.2V100.9z"/>
			<path class="st1" d="M404.2,125.5c3,0,4.5-0.9,4.5-2.6c0-0.9-0.4-1.6-1.2-2.1c-0.8-0.5-2.6-1.4-5.3-2.6c-2.3-1-4-1.9-5.1-2.7
				c-1.1-0.8-1.9-1.8-2.3-2.8s-0.7-2.4-0.7-3.9c0-2.7,1-4.7,3.1-6.2c2.1-1.5,5-2.2,8.7-2.2c3.7,0,7.3,0.8,10.7,2.4l-2.5,5.9
				c-1.7-0.7-3.2-1.3-4.5-1.7c-1.2-0.4-2.5-0.6-3.7-0.6c-2.4,0-3.6,0.7-3.6,2c0,0.7,0.4,1.4,1.2,1.9c0.8,0.5,2.4,1.3,4.9,2.3
				c2.5,1,4.3,1.9,5.4,2.7c2.1,1.6,3.2,3.9,3.2,6.9c0,3-1.1,5.3-3.2,6.9c-2.1,1.6-5.3,2.4-9.3,2.4c-4.1,0-7.5-0.6-10.2-1.7V123
				c1.5,0.7,3.3,1.3,5.2,1.8C401.1,125.3,402.8,125.5,404.2,125.5z"/>
		</g>
	</g>
	<g>
		<g id="User_1_">
			<g>
				<path class="st1" d="M106,133.1c14,0,25.4-13.9,25.4-31S120,71,106,71c-6.9,0-13.3,3.3-18.1,9.3c-4.7,5.8-7.2,13.5-7.2,21.7
					C80.6,119.1,92,133.1,106,133.1z M106,76.7c10.9,0,19.7,11.4,19.7,25.4c0,14-8.9,25.4-19.7,25.4S86.3,116,86.3,102.1
					C86.3,88.1,95.1,76.7,106,76.7z M125.8,127.4c-1.6,0-2.8,1.3-2.8,2.8s1.3,2.8,2.8,2.8c10.9,0,19.7,8.9,19.7,19.7
					c0,1.6-1.3,2.8-2.8,2.8H69.4c-1.6,0-2.8-1.3-2.8-2.8c0-10.9,8.9-19.7,19.7-19.7c1.6,0,2.8-1.3,2.8-2.8s-1.3-2.8-2.8-2.8
					c-14,0-25.4,11.4-25.4,25.4c0,4.7,3.8,8.5,8.5,8.5h73.3c4.7,0,8.5-3.8,8.5-8.5C151.1,138.8,139.7,127.4,125.8,127.4z"/>
			</g>
		</g>
	</g>
</g>
<rect x="0.2" y="0.8" class="st2" width="480" height="218"/>
<g>
	<g>
		<g>
			<path class="st1" d="M173.1,71.8h-60.1c-8.9,0-16.2,7.3-16.2,16.2v37c0,8.9,7.3,16.2,16.2,16.2l38.3,0l18.3,18.3
				c0.6,0.6,1.4,1,2.3,1c0.4,0,0.8-0.1,1.2-0.2c1.2-0.5,2-1.7,2-3v-16.1c8-1,14.2-7.8,14.2-16.1V88
				C189.3,79.1,182.1,71.8,173.1,71.8z M182.9,125c0,5.4-4.4,9.7-9.7,9.7h-1.2c-1.8,0-3.2,1.5-3.2,3.2v11.4L155,135.7
				c-0.6-0.6-1.4-0.9-2.3-0.9h-39.6c-5.4,0-9.7-4.4-9.7-9.7V88c0-5.4,4.4-9.7,9.7-9.7h60.1c5.4,0,9.7,4.4,9.7,9.7V125z"/>
			<path class="st1" d="M167,94.7h-47.7c-1.8,0-3.2,1.5-3.2,3.2c0,1.8,1.5,3.2,3.2,3.2H167c1.8,0,3.2-1.5,3.2-3.2
				C170.2,96.2,168.8,94.7,167,94.7z"/>
			<path class="st1" d="M167,112.9h-47.7c-1.8,0-3.2,1.5-3.2,3.2c0,1.8,1.5,3.2,3.2,3.2H167c1.8,0,3.2-1.5,3.2-3.2
				C170.2,114.4,168.8,112.9,167,112.9z"/>
		</g>
	</g>
	<g>
		<g>
			<path class="st1" d="M242.7,131.5c-5.7,0-10.1-1.7-13.1-5.2c-3-3.5-4.5-8.4-4.5-14.9c0-0.1,0-0.2,0-0.3c0-3.9,0.7-7.4,2.2-10.5
				c1.5-3.1,3.6-5.4,6.4-7c2.8-1.6,5.9-2.5,9.5-2.5c0.1,0,0.2,0,0.3,0c3.8,0,7.7,0.9,11.5,2.8l-2.7,6.8c-3.6-1.7-6.6-2.6-8.8-2.6
				c-3.1,0-5.6,1.2-7.3,3.5s-2.6,5.6-2.6,9.8c0,8.8,3.3,13.1,9.9,13.1c2.7,0,6.1-0.7,10-2.1v7C250.3,130.8,246.7,131.5,242.7,131.5z
				"/>
			<path class="st1" d="M271.1,89.2v8.5c0,0.8-0.1,2.4-0.2,4.7l-0.2,2.4h0.4c1.8-3,4.7-4.4,8.7-4.4c3.5,0,6.2,0.9,8,2.8
				s2.8,4.6,2.8,8.2V131h-8.2v-17.5c0-4.3-1.6-6.5-4.8-6.5c-2.3,0-3.9,0.8-5,2.3s-1.5,4.1-1.5,7.6V131h-8.2V89.2H271.1z"/>
			<path class="st1" d="M301.5,103c3.5-1.8,7.3-2.7,11.4-2.7c4.1,0,7.3,0.9,9.4,2.7c2.1,1.8,3.2,4.4,3.2,8v20h-5.7l-1.6-4.1H318
				c-1.4,1.8-2.8,3-4.2,3.6c-1.5,0.7-3.4,1-5.7,1c-2.9,0-5.1-0.8-6.8-2.5c-1.6-1.6-2.5-4-2.5-7.1s1.1-5.4,3.3-6.9
				c2.2-1.5,5.6-2.4,10.1-2.5l5.2-0.2V111c0-3-1.6-4.6-4.7-4.6c-2.4,0-5.2,0.7-8.5,2.2L301.5,103z M307.1,122.1c0,2.3,1.3,3.5,4,3.5
				c1.9,0,3.4-0.5,4.6-1.6c1.1-1.1,1.7-2.5,1.7-4.4v-2.5l-3.2,0.1c-2.4,0.1-4.2,0.5-5.3,1.3C307.7,119.2,307.1,120.4,307.1,122.1z"
				/>
			<path class="st1" d="M344.7,100.9h8.4v6.2h-8.4v14.5c0,1.1,0.3,2,1,2.6s1.6,0.9,2.8,0.9c1.3,0,2.9-0.3,4.9-0.9v6.1
				c-2,0.9-4.6,1.4-7.7,1.4s-5.4-0.8-6.9-2.5c-1.5-1.6-2.3-4.1-2.3-7.5v-14.5h-3.9v-3.5l4.5-2.7l2.4-6.3h5.2V100.9z"/>
		</g>
		<g>
			<path class="st1" d="M242.7,131.5c-5.7,0-10.1-1.7-13.1-5.2c-3-3.5-4.5-8.4-4.5-14.9c0-0.1,0-0.2,0-0.3c0-3.9,0.7-7.4,2.2-10.5
				c1.5-3.1,3.6-5.4,6.4-7c2.8-1.6,5.9-2.5,9.5-2.5c0.1,0,0.2,0,0.3,0c3.8,0,7.7,0.9,11.5,2.8l-2.7,6.8c-3.6-1.7-6.6-2.6-8.8-2.6
				c-3.1,0-5.6,1.2-7.3,3.5s-2.6,5.6-2.6,9.8c0,8.8,3.3,13.1,9.9,13.1c2.7,0,6.1-0.7,10-2.1v7C250.3,130.8,246.7,131.5,242.7,131.5z
				"/>
			<path class="st1" d="M271.1,89.2v8.5c0,0.8-0.1,2.4-0.2,4.7l-0.2,2.4h0.4c1.8-3,4.7-4.4,8.7-4.4c3.5,0,6.2,0.9,8,2.8
				s2.8,4.6,2.8,8.2V131h-8.2v-17.5c0-4.3-1.6-6.5-4.8-6.5c-2.3,0-3.9,0.8-5,2.3s-1.5,4.1-1.5,7.6V131h-8.2V89.2H271.1z"/>
			<path class="st1" d="M301.5,103c3.5-1.8,7.3-2.7,11.4-2.7c4.1,0,7.3,0.9,9.4,2.7c2.1,1.8,3.2,4.4,3.2,8v20h-5.7l-1.6-4.1H318
				c-1.4,1.8-2.8,3-4.2,3.6c-1.5,0.7-3.4,1-5.7,1c-2.9,0-5.1-0.8-6.8-2.5c-1.6-1.6-2.5-4-2.5-7.1s1.1-5.4,3.3-6.9
				c2.2-1.5,5.6-2.4,10.1-2.5l5.2-0.2V111c0-3-1.6-4.6-4.7-4.6c-2.4,0-5.2,0.7-8.5,2.2L301.5,103z M307.1,122.1c0,2.3,1.3,3.5,4,3.5
				c1.9,0,3.4-0.5,4.6-1.6c1.1-1.1,1.7-2.5,1.7-4.4v-2.5l-3.2,0.1c-2.4,0.1-4.2,0.5-5.3,1.3C307.7,119.2,307.1,120.4,307.1,122.1z"
				/>
			<path class="st1" d="M344.7,100.9h8.4v6.2h-8.4v14.5c0,1.1,0.3,2,1,2.6s1.6,0.9,2.8,0.9c1.3,0,2.9-0.3,4.9-0.9v6.1
				c-2,0.9-4.6,1.4-7.7,1.4s-5.4-0.8-6.9-2.5c-1.5-1.6-2.3-4.1-2.3-7.5v-14.5h-3.9v-3.5l4.5-2.7l2.4-6.3h5.2V100.9z"/>
		</g>
		<g>
			<path class="st1" d="M242.7,131.5c-5.7,0-10.1-1.7-13.1-5.2c-3-3.5-4.5-8.4-4.5-14.9c0-0.1,0-0.2,0-0.3c0-3.9,0.7-7.4,2.2-10.5
				c1.5-3.1,3.6-5.4,6.4-7c2.8-1.6,5.9-2.5,9.5-2.5c0.1,0,0.2,0,0.3,0c3.8,0,7.7,0.9,11.5,2.8l-2.7,6.8c-3.6-1.7-6.6-2.6-8.8-2.6
				c-3.1,0-5.6,1.2-7.3,3.5s-2.6,5.6-2.6,9.8c0,8.8,3.3,13.1,9.9,13.1c2.7,0,6.1-0.7,10-2.1v7C250.3,130.8,246.7,131.5,242.7,131.5z
				"/>
			<path class="st1" d="M271.1,89.2v8.5c0,0.8-0.1,2.4-0.2,4.7l-0.2,2.4h0.4c1.8-3,4.7-4.4,8.7-4.4c3.5,0,6.2,0.9,8,2.8
				s2.8,4.6,2.8,8.2V131h-8.2v-17.5c0-4.3-1.6-6.5-4.8-6.5c-2.3,0-3.9,0.8-5,2.3s-1.5,4.1-1.5,7.6V131h-8.2V89.2H271.1z"/>
			<path class="st1" d="M301.5,103c3.5-1.8,7.3-2.7,11.4-2.7c4.1,0,7.3,0.9,9.4,2.7c2.1,1.8,3.2,4.4,3.2,8v20h-5.7l-1.6-4.1H318
				c-1.4,1.8-2.8,3-4.2,3.6c-1.5,0.7-3.4,1-5.7,1c-2.9,0-5.1-0.8-6.8-2.5c-1.6-1.6-2.5-4-2.5-7.1s1.1-5.4,3.3-6.9
				c2.2-1.5,5.6-2.4,10.1-2.5l5.2-0.2V111c0-3-1.6-4.6-4.7-4.6c-2.4,0-5.2,0.7-8.5,2.2L301.5,103z M307.1,122.1c0,2.3,1.3,3.5,4,3.5
				c1.9,0,3.4-0.5,4.6-1.6c1.1-1.1,1.7-2.5,1.7-4.4v-2.5l-3.2,0.1c-2.4,0.1-4.2,0.5-5.3,1.3C307.7,119.2,307.1,120.4,307.1,122.1z"
				/>
			<path class="st1" d="M344.7,100.9h8.4v6.2h-8.4v14.5c0,1.1,0.3,2,1,2.6s1.6,0.9,2.8,0.9c1.3,0,2.9-0.3,4.9-0.9v6.1
				c-2,0.9-4.6,1.4-7.7,1.4s-5.4-0.8-6.9-2.5c-1.5-1.6-2.3-4.1-2.3-7.5v-14.5h-3.9v-3.5l4.5-2.7l2.4-6.3h5.2V100.9z"/>
		</g>
	</g>
</g>
</svg>
