<?xml version="1.0" encoding="utf-8"?>
<!-- Generator: Adobe Illustrator 19.1.0, SVG Export Plug-In . SVG Version: 6.00 Build 0)  -->
<svg version="1.1" id="Layer_1" xmlns="http://www.w3.org/2000/svg" xmlns:xlink="http://www.w3.org/1999/xlink" x="0px" y="0px"
	 viewBox="240 -164.3 1440 888.3" style="enable-background:new 240 -164.3 1440 888.3;" xml:space="preserve">
<style type="text/css">
	.st0{fill:#3B4351;}
</style>
<g>
	<g>
		<path class="st0" d="M270-164.3c-16.5,0-30,13.5-30,30v732.7c0,16.5,13.5,30,30,30h527.8c16.5,0,41.7,6.8,56,15l80.3,46.4
			c14.3,8.3,37.7,8.3,52,0l80.3-46.4c14.3-8.3,39.5-15,56-15H1650c16.5,0,30-13.5,30-30v-732.7c0-16.5-13.5-30-30-30H270z
			 M1152,232.8c0,16.5-11.7,36.8-26,45L986,359.1c-14.3,8.3-37.6,8.3-51.9,0L794,277.9c-14.3-8.3-26-28.5-26-45V70.3
			c0-16.5,11.7-36.8,26-45L934-55.9c14.3-8.3,37.6-8.3,51.9,0L1126,25.3c14.3,8.3,26,28.5,26,45V232.8z"/>
	</g>
</g>
<rect x="240" y="-164.3" class="st0" width="1440" height="68"/>
</svg>
