<?xml version="1.0" encoding="utf-8"?>
<!-- Generator: Adobe Illustrator 19.1.0, SVG Export Plug-In . SVG Version: 6.00 Build 0)  -->
<svg version="1.1" id="Layer_1" xmlns="http://www.w3.org/2000/svg" xmlns:xlink="http://www.w3.org/1999/xlink" x="0px" y="0px"
	 viewBox="0 0 480 218" style="enable-background:new 0 0 480 218;" xml:space="preserve">
<style type="text/css">
	.st0{fill:#E2393E;}
	.st1{fill:#FFFFFF;}
</style>
<rect x="0.2" y="0.8" class="st0" width="480" height="218"/>
<g>
	<g>
		<path class="st1" d="M175.1,98h-7.8V79.4c0-1.3,0-2.2,0-3c0-0.7,0.1-3.8,0.4-9.2h-0.2L157.4,98h-7.6l-9.5-30.8H140
			c0.3,6.1,0.5,10.3,0.5,12.5V98h-7.4V58.7h11.3l9.3,30h0.2l9.9-30h11.3V98z"/>
		<path class="st1" d="M210.1,96.4c-2.8,1.4-6.3,2.1-10.6,2.1c-4.8,0-8.6-1.3-11.3-4c-2.7-2.7-4.1-6.5-4.1-11.4
			c0-5,1.3-8.8,3.8-11.5c2.5-2.8,5.9-4.2,10.3-4.2c4.4,0,7.7,1.2,10,3.6c2.4,2.4,3.6,5.7,3.6,10v4h-19.4c0.1,2.3,0.8,4.2,2.1,5.5
			c1.3,1.3,3.1,1.9,5.4,1.9c3.4,0,6.8-0.8,10.2-2.4V96.4z M202.5,74.9c-1-1.1-2.4-1.7-4.1-1.7s-3.1,0.5-4.1,1.6
			c-1,1.1-1.6,2.7-1.7,4.7h11.5C204.1,77.5,203.6,76,202.5,74.9z"/>
		<path class="st1" d="M246.3,98h-6.3l-1.6-3.9h-0.3c-1.8,3-4.7,4.4-8.5,4.4c-3.5,0-6.3-1.4-8.3-4.1c-2-2.7-3-6.5-3-11.4
			c0-4.9,1-8.7,3.1-11.5c2-2.7,4.9-4.1,8.6-4.1c3.7,0,6.5,1.5,8.5,4.4h0.3c-0.4-2.3-0.6-4.3-0.6-6v-9.6h8.2V98z M238.7,83.1
			c0-3.2-0.5-5.5-1.5-6.9c-1-1.4-2.6-2.1-4.8-2.1c-1.8,0-3.3,0.8-4.3,2.3c-1,1.6-1.5,3.8-1.5,6.7c0,2.9,0.5,5.1,1.5,6.6
			c1,1.5,2.5,2.2,4.5,2.2s3.5-0.6,4.5-1.8c1-1.2,1.5-3.3,1.6-6.2V83.1z"/>
		<path class="st1" d="M256.2,60.2c0-2.7,1.5-4,4.5-4c3,0,4.5,1.3,4.5,4c0,1.3-0.4,2.3-1.1,3s-1.9,1-3.3,1
			C257.7,64.2,256.2,62.9,256.2,60.2z M264.8,98h-8.2v-30h8.2V98z"/>
		<path class="st1" d="M287.2,98.5c-9.3,0-14-5.1-14-15.4c0-5.1,1.3-9,3.8-11.7c2.5-2.7,6.2-4.1,10.9-4.1c3.5,0,6.6,0.7,9.3,2
			l-2.4,6.3c-2.9-1.2-5.2-1.8-6.9-1.8c-4.3,0-6.4,3-6.4,8.9s2.1,8.9,6.4,8.9c3,0,5.8-0.9,8.4-2.6v7c-1.4,0.9-2.7,1.5-4,1.7
			C291,98.3,289.2,98.5,287.2,98.5z"/>
		<path class="st1" d="M305.7,70c3.5-1.8,7.3-2.7,11.4-2.7c4.1,0,7.3,0.9,9.4,2.7c2.1,1.8,3.2,4.4,3.2,8v20H324l-1.6-4.1h-0.2
			c-1.4,1.8-2.8,3-4.2,3.6c-1.5,0.7-3.4,1-5.7,1c-2.9,0-5.1-0.8-6.8-2.5c-1.6-1.6-2.5-4-2.5-7.1c0-3.1,1.1-5.4,3.3-6.9
			c2.2-1.5,5.6-2.4,10.1-2.5l5.2-0.2V78c0-3-1.6-4.6-4.7-4.6c-2.4,0-5.2,0.7-8.5,2.2L305.7,70z M311.3,89.1c0,2.3,1.3,3.5,4,3.5
			c1.9,0,3.4-0.5,4.6-1.6c1.1-1.1,1.7-2.5,1.7-4.4v-2.5l-3.2,0.1c-2.4,0.1-4.2,0.5-5.3,1.3C311.9,86.2,311.3,87.4,311.3,89.1z"/>
		<path class="st1" d="M348,98h-8.2V56.2h8.2V98z"/>
		<path class="st1" d="M187.6,126.2c0-2.7,1.5-4,4.5-4c3,0,4.5,1.3,4.5,4c0,1.3-0.4,2.3-1.1,3c-0.8,0.7-1.9,1-3.3,1
			C189,130.2,187.6,128.9,187.6,126.2z M196.1,164h-8.2v-30h8.2V164z"/>
		<path class="st1" d="M223.4,133.4c3.5,0,6.1,0.9,7.9,2.8c1.8,1.9,2.7,4.6,2.7,8.2V164h-8.2v-17.5c0-2.2-0.4-3.8-1.2-4.9
			c-0.8-1.1-2-1.6-3.7-1.6c-2.3,0-3.9,0.8-5,2.3s-1.5,4.1-1.5,7.6V164h-8.2v-30h6.3l1.1,3.9h0.5c0.9-1.5,2.1-2.6,3.7-3.3
			C219.5,133.8,221.3,133.4,223.4,133.4z"/>
		<path class="st1" d="M245.5,131.7c0-3.4,0.8-5.9,2.5-7.5c1.7-1.6,4.4-2.3,8.1-2.3c2.8,0,5.3,0.4,7.5,1.3l-2.1,6
			c-1.7-0.5-3.1-0.8-4.4-0.8s-2.1,0.3-2.7,1c-0.5,0.7-0.8,1.6-0.8,2.7v1.9h7.1v6.1h-7.1V164h-8.2v-23.9h-4.5v-3.9l4.5-2.2V131.7z"/>
		<path class="st1" d="M280.1,133.4c2.8,0,5.2,0.6,7.4,1.9c2.2,1.2,3.9,3,5,5.4c1.2,2.3,1.8,5,1.8,8c0,0.1,0,0.2,0,0.3
			c0,4.9-1.3,8.7-3.9,11.5c-2.6,2.8-6.2,4.1-10.8,4.1c-0.1,0-0.2,0-0.2,0c-2.8,0-5.2-0.6-7.4-1.9c-2.2-1.3-3.9-3.1-5-5.4
			c-1.2-2.3-1.8-5-1.8-8c0-0.1,0-0.2,0-0.3c0-4.9,1.3-8.7,3.8-11.4c2.6-2.7,6.2-4.1,10.8-4.1C279.9,133.4,280,133.4,280.1,133.4z
			 M284.5,142.2c-1-1.5-2.6-2.2-4.7-2.2s-3.7,0.7-4.7,2.2c-1,1.5-1.5,3.7-1.5,6.7c0,3,0.5,5.3,1.5,6.8c1,1.5,2.6,2.2,4.7,2.2
			s3.7-0.7,4.7-2.2c1-1.5,1.5-3.7,1.5-6.8C286,145.9,285.5,143.6,284.5,142.2z"/>
	</g>
	<g>
		<path class="st1" d="M175.1,98h-7.8V79.4c0-1.3,0-2.2,0-3c0-0.7,0.1-3.8,0.4-9.2h-0.2L157.4,98h-7.6l-9.5-30.8H140
			c0.3,6.1,0.5,10.3,0.5,12.5V98h-7.4V58.7h11.3l9.3,30h0.2l9.9-30h11.3V98z"/>
		<path class="st1" d="M210.1,96.4c-2.8,1.4-6.3,2.1-10.6,2.1c-4.8,0-8.6-1.3-11.3-4c-2.7-2.7-4.1-6.5-4.1-11.4
			c0-5,1.3-8.8,3.8-11.5c2.5-2.8,5.9-4.2,10.3-4.2c4.4,0,7.7,1.2,10,3.6c2.4,2.4,3.6,5.7,3.6,10v4h-19.4c0.1,2.3,0.8,4.2,2.1,5.5
			c1.3,1.3,3.1,1.9,5.4,1.9c3.4,0,6.8-0.8,10.2-2.4V96.4z M202.5,74.9c-1-1.1-2.4-1.7-4.1-1.7s-3.1,0.5-4.1,1.6
			c-1,1.1-1.6,2.7-1.7,4.7h11.5C204.1,77.5,203.6,76,202.5,74.9z"/>
		<path class="st1" d="M246.3,98h-6.3l-1.6-3.9h-0.3c-1.8,3-4.7,4.4-8.5,4.4c-3.5,0-6.3-1.4-8.3-4.1c-2-2.7-3-6.5-3-11.4
			c0-4.9,1-8.7,3.1-11.5c2-2.7,4.9-4.1,8.6-4.1c3.7,0,6.5,1.5,8.5,4.4h0.3c-0.4-2.3-0.6-4.3-0.6-6v-9.6h8.2V98z M238.7,83.1
			c0-3.2-0.5-5.5-1.5-6.9c-1-1.4-2.6-2.1-4.8-2.1c-1.8,0-3.3,0.8-4.3,2.3c-1,1.6-1.5,3.8-1.5,6.7c0,2.9,0.5,5.1,1.5,6.6
			c1,1.5,2.5,2.2,4.5,2.2s3.5-0.6,4.5-1.8c1-1.2,1.5-3.3,1.6-6.2V83.1z"/>
		<path class="st1" d="M256.2,60.2c0-2.7,1.5-4,4.5-4c3,0,4.5,1.3,4.5,4c0,1.3-0.4,2.3-1.1,3s-1.9,1-3.3,1
			C257.7,64.2,256.2,62.9,256.2,60.2z M264.8,98h-8.2v-30h8.2V98z"/>
		<path class="st1" d="M287.2,98.5c-9.3,0-14-5.1-14-15.4c0-5.1,1.3-9,3.8-11.7c2.5-2.7,6.2-4.1,10.9-4.1c3.5,0,6.6,0.7,9.3,2
			l-2.4,6.3c-2.9-1.2-5.2-1.8-6.9-1.8c-4.3,0-6.4,3-6.4,8.9s2.1,8.9,6.4,8.9c3,0,5.8-0.9,8.4-2.6v7c-1.4,0.9-2.7,1.5-4,1.7
			C291,98.3,289.2,98.5,287.2,98.5z"/>
		<path class="st1" d="M305.7,70c3.5-1.8,7.3-2.7,11.4-2.7c4.1,0,7.3,0.9,9.4,2.7c2.1,1.8,3.2,4.4,3.2,8v20H324l-1.6-4.1h-0.2
			c-1.4,1.8-2.8,3-4.2,3.6c-1.5,0.7-3.4,1-5.7,1c-2.9,0-5.1-0.8-6.8-2.5c-1.6-1.6-2.5-4-2.5-7.1c0-3.1,1.1-5.4,3.3-6.9
			c2.2-1.5,5.6-2.4,10.1-2.5l5.2-0.2V78c0-3-1.6-4.6-4.7-4.6c-2.4,0-5.2,0.7-8.5,2.2L305.7,70z M311.3,89.1c0,2.3,1.3,3.5,4,3.5
			c1.9,0,3.4-0.5,4.6-1.6c1.1-1.1,1.7-2.5,1.7-4.4v-2.5l-3.2,0.1c-2.4,0.1-4.2,0.5-5.3,1.3C311.9,86.2,311.3,87.4,311.3,89.1z"/>
		<path class="st1" d="M348,98h-8.2V56.2h8.2V98z"/>
		<path class="st1" d="M187.6,126.2c0-2.7,1.5-4,4.5-4c3,0,4.5,1.3,4.5,4c0,1.3-0.4,2.3-1.1,3c-0.8,0.7-1.9,1-3.3,1
			C189,130.2,187.6,128.9,187.6,126.2z M196.1,164h-8.2v-30h8.2V164z"/>
		<path class="st1" d="M223.4,133.4c3.5,0,6.1,0.9,7.9,2.8c1.8,1.9,2.7,4.6,2.7,8.2V164h-8.2v-17.5c0-2.2-0.4-3.8-1.2-4.9
			c-0.8-1.1-2-1.6-3.7-1.6c-2.3,0-3.9,0.8-5,2.3s-1.5,4.1-1.5,7.6V164h-8.2v-30h6.3l1.1,3.9h0.5c0.9-1.5,2.1-2.6,3.7-3.3
			C219.5,133.8,221.3,133.4,223.4,133.4z"/>
		<path class="st1" d="M245.5,131.7c0-3.4,0.8-5.9,2.5-7.5c1.7-1.6,4.4-2.3,8.1-2.3c2.8,0,5.3,0.4,7.5,1.3l-2.1,6
			c-1.7-0.5-3.1-0.8-4.4-0.8s-2.1,0.3-2.7,1c-0.5,0.7-0.8,1.6-0.8,2.7v1.9h7.1v6.1h-7.1V164h-8.2v-23.9h-4.5v-3.9l4.5-2.2V131.7z"/>
		<path class="st1" d="M280.1,133.4c2.8,0,5.2,0.6,7.4,1.9c2.2,1.2,3.9,3,5,5.4c1.2,2.3,1.8,5,1.8,8c0,0.1,0,0.2,0,0.3
			c0,4.9-1.3,8.7-3.9,11.5c-2.6,2.8-6.2,4.1-10.8,4.1c-0.1,0-0.2,0-0.2,0c-2.8,0-5.2-0.6-7.4-1.9c-2.2-1.3-3.9-3.1-5-5.4
			c-1.2-2.3-1.8-5-1.8-8c0-0.1,0-0.2,0-0.3c0-4.9,1.3-8.7,3.8-11.4c2.6-2.7,6.2-4.1,10.8-4.1C279.9,133.4,280,133.4,280.1,133.4z
			 M284.5,142.2c-1-1.5-2.6-2.2-4.7-2.2s-3.7,0.7-4.7,2.2c-1,1.5-1.5,3.7-1.5,6.7c0,3,0.5,5.3,1.5,6.8c1,1.5,2.6,2.2,4.7,2.2
			s3.7-0.7,4.7-2.2c1-1.5,1.5-3.7,1.5-6.8C286,145.9,285.5,143.6,284.5,142.2z"/>
	</g>
	<g>
		<path class="st1" d="M175.1,98h-7.8V79.4c0-1.3,0-2.2,0-3c0-0.7,0.1-3.8,0.4-9.2h-0.2L157.4,98h-7.6l-9.5-30.8H140
			c0.3,6.1,0.5,10.3,0.5,12.5V98h-7.4V58.7h11.3l9.3,30h0.2l9.9-30h11.3V98z"/>
		<path class="st1" d="M210.1,96.4c-2.8,1.4-6.3,2.1-10.6,2.1c-4.8,0-8.6-1.3-11.3-4c-2.7-2.7-4.1-6.5-4.1-11.4
			c0-5,1.3-8.8,3.8-11.5c2.5-2.8,5.9-4.2,10.3-4.2c4.4,0,7.7,1.2,10,3.6c2.4,2.4,3.6,5.7,3.6,10v4h-19.4c0.1,2.3,0.8,4.2,2.1,5.5
			c1.3,1.3,3.1,1.9,5.4,1.9c3.4,0,6.8-0.8,10.2-2.4V96.4z M202.5,74.9c-1-1.1-2.4-1.7-4.1-1.7s-3.1,0.5-4.1,1.6
			c-1,1.1-1.6,2.7-1.7,4.7h11.5C204.1,77.5,203.6,76,202.5,74.9z"/>
		<path class="st1" d="M246.3,98h-6.3l-1.6-3.9h-0.3c-1.8,3-4.7,4.4-8.5,4.4c-3.5,0-6.3-1.4-8.3-4.1c-2-2.7-3-6.5-3-11.4
			c0-4.9,1-8.7,3.1-11.5c2-2.7,4.9-4.1,8.6-4.1c3.7,0,6.5,1.5,8.5,4.4h0.3c-0.4-2.3-0.6-4.3-0.6-6v-9.6h8.2V98z M238.7,83.1
			c0-3.2-0.5-5.5-1.5-6.9c-1-1.4-2.6-2.1-4.8-2.1c-1.8,0-3.3,0.8-4.3,2.3c-1,1.6-1.5,3.8-1.5,6.7c0,2.9,0.5,5.1,1.5,6.6
			c1,1.5,2.5,2.2,4.5,2.2s3.5-0.6,4.5-1.8c1-1.2,1.5-3.3,1.6-6.2V83.1z"/>
		<path class="st1" d="M256.2,60.2c0-2.7,1.5-4,4.5-4c3,0,4.5,1.3,4.5,4c0,1.3-0.4,2.3-1.1,3s-1.9,1-3.3,1
			C257.7,64.2,256.2,62.9,256.2,60.2z M264.8,98h-8.2v-30h8.2V98z"/>
		<path class="st1" d="M287.2,98.5c-9.3,0-14-5.1-14-15.4c0-5.1,1.3-9,3.8-11.7c2.5-2.7,6.2-4.1,10.9-4.1c3.5,0,6.6,0.7,9.3,2
			l-2.4,6.3c-2.9-1.2-5.2-1.8-6.9-1.8c-4.3,0-6.4,3-6.4,8.9s2.1,8.9,6.4,8.9c3,0,5.8-0.9,8.4-2.6v7c-1.4,0.9-2.7,1.5-4,1.7
			C291,98.3,289.2,98.5,287.2,98.5z"/>
		<path class="st1" d="M305.7,70c3.5-1.8,7.3-2.7,11.4-2.7c4.1,0,7.3,0.9,9.4,2.7c2.1,1.8,3.2,4.4,3.2,8v20H324l-1.6-4.1h-0.2
			c-1.4,1.8-2.8,3-4.2,3.6c-1.5,0.7-3.4,1-5.7,1c-2.9,0-5.1-0.8-6.8-2.5c-1.6-1.6-2.5-4-2.5-7.1c0-3.1,1.1-5.4,3.3-6.9
			c2.2-1.5,5.6-2.4,10.1-2.5l5.2-0.2V78c0-3-1.6-4.6-4.7-4.6c-2.4,0-5.2,0.7-8.5,2.2L305.7,70z M311.3,89.1c0,2.3,1.3,3.5,4,3.5
			c1.9,0,3.4-0.5,4.6-1.6c1.1-1.1,1.7-2.5,1.7-4.4v-2.5l-3.2,0.1c-2.4,0.1-4.2,0.5-5.3,1.3C311.9,86.2,311.3,87.4,311.3,89.1z"/>
		<path class="st1" d="M348,98h-8.2V56.2h8.2V98z"/>
		<path class="st1" d="M187.6,126.2c0-2.7,1.5-4,4.5-4c3,0,4.5,1.3,4.5,4c0,1.3-0.4,2.3-1.1,3c-0.8,0.7-1.9,1-3.3,1
			C189,130.2,187.6,128.9,187.6,126.2z M196.1,164h-8.2v-30h8.2V164z"/>
		<path class="st1" d="M223.4,133.4c3.5,0,6.1,0.9,7.9,2.8c1.8,1.9,2.7,4.6,2.7,8.2V164h-8.2v-17.5c0-2.2-0.4-3.8-1.2-4.9
			c-0.8-1.1-2-1.6-3.7-1.6c-2.3,0-3.9,0.8-5,2.3s-1.5,4.1-1.5,7.6V164h-8.2v-30h6.3l1.1,3.9h0.5c0.9-1.5,2.1-2.6,3.7-3.3
			C219.5,133.8,221.3,133.4,223.4,133.4z"/>
		<path class="st1" d="M245.5,131.7c0-3.4,0.8-5.9,2.5-7.5c1.7-1.6,4.4-2.3,8.1-2.3c2.8,0,5.3,0.4,7.5,1.3l-2.1,6
			c-1.7-0.5-3.1-0.8-4.4-0.8s-2.1,0.3-2.7,1c-0.5,0.7-0.8,1.6-0.8,2.7v1.9h7.1v6.1h-7.1V164h-8.2v-23.9h-4.5v-3.9l4.5-2.2V131.7z"/>
		<path class="st1" d="M280.1,133.4c2.8,0,5.2,0.6,7.4,1.9c2.2,1.2,3.9,3,5,5.4c1.2,2.3,1.8,5,1.8,8c0,0.1,0,0.2,0,0.3
			c0,4.9-1.3,8.7-3.9,11.5c-2.6,2.8-6.2,4.1-10.8,4.1c-0.1,0-0.2,0-0.2,0c-2.8,0-5.2-0.6-7.4-1.9c-2.2-1.3-3.9-3.1-5-5.4
			c-1.2-2.3-1.8-5-1.8-8c0-0.1,0-0.2,0-0.3c0-4.9,1.3-8.7,3.8-11.4c2.6-2.7,6.2-4.1,10.8-4.1C279.9,133.4,280,133.4,280.1,133.4z
			 M284.5,142.2c-1-1.5-2.6-2.2-4.7-2.2s-3.7,0.7-4.7,2.2c-1,1.5-1.5,3.7-1.5,6.7c0,3,0.5,5.3,1.5,6.8c1,1.5,2.6,2.2,4.7,2.2
			s3.7-0.7,4.7-2.2c1-1.5,1.5-3.7,1.5-6.8C286,145.9,285.5,143.6,284.5,142.2z"/>
	</g>
</g>
</svg>
