<?xml version="1.0" encoding="utf-8"?>
<!-- Generator: Adobe Illustrator 19.1.0, SVG Export Plug-In . SVG Version: 6.00 Build 0)  -->
<svg version="1.1" id="Layer_1" xmlns="http://www.w3.org/2000/svg" xmlns:xlink="http://www.w3.org/1999/xlink" x="0px" y="0px"
	 viewBox="0 0 191 191" style="enable-background:new 0 0 191 191;" xml:space="preserve">
<style type="text/css">
	.st0{fill:#231F20;}
	.st1{fill:#FFFFFF;}
</style>
<g>
	<g id="XMLID_1_">
		<g>
			<path class="st0" d="M167.4,53.1c0.3,0.6,0.7,1.1,1,1.7C168.1,54.3,167.7,53.7,167.4,53.1z"/>
			<path class="st1" d="M95.5,0.1c52.7,0,95.4,42.7,95.4,95.4s-42.7,95.4-95.4,95.4S0.1,148.2,0.1,95.5S42.8,0.1,95.5,0.1z
				 M179,95.5c0-14.7-3.9-28.6-10.6-40.6c0,0,0,0,0,0c-0.3-0.6-0.7-1.2-1-1.7c-1-1.8-2.2-3.5-3.3-5.2c-0.5-0.8-1.1-1.6-1.7-2.3
				c0,0,0,0,0,0c-0.4-0.5-0.8-1.1-1.2-1.6c0,0,0,0,0,0c-0.8-1-1.7-2.1-2.5-3.1c0,0,0,0,0,0c-9-10.4-20.4-18.5-33.5-23.4c0,0,0,0,0,0
				c-1.3-0.5-2.6-0.9-3.9-1.4c-1.6-0.5-3.3-1-4.9-1.4c-0.3-0.1-0.7-0.2-1-0.3c-1.3-0.3-2.7-0.6-4.1-0.9c-0.7-0.1-1.4-0.3-2.1-0.4
				s-1.4-0.2-2.1-0.3c-1.7-0.2-3.5-0.4-5.2-0.6c-0.7-0.1-1.4-0.1-2.1-0.1C98.4,12,96.9,12,95.5,12c-5.4,0-10.7,0.5-15.8,1.5
				C41.2,20.9,12,54.9,12,95.5c0,44.6,35.2,81.2,79.2,83.4c1.4,0.1,2.9,0.1,4.3,0.1s2.9,0,4.3-0.1C143.9,176.7,179,140.1,179,95.5z"
				/>
			<path class="st0" d="M179,95.5c0,44.6-35.2,81.2-79.2,83.4C143.8,176.7,179,140.1,179,95.5c0-14.7-3.9-28.6-10.6-40.6
				C175.2,66.9,179,80.8,179,95.5z"/>
			<path class="st1" d="M53,116.2c0,0.1,0.1,0.2,0.1,0.3c1.3,2.8,11,21.1,31.4,25.8c0.2,0,0.4,0.1,0.6,0.1c0.4,0.1,0.8,0.2,1.2,0.2
				c2.6,0.5,5.3,0.8,8.2,0.8c0.2,0,0.4,0,0.6,0c28.5-0.3,41-23.7,42.6-26.9c0,0,0,0,0,0c0,0,0-0.1,0.1-0.1c0.1-0.1,0.1-0.2,0.1-0.2
				c1.3-3,4.8-4.4,7.9-3c3,1.3,4.4,4.8,3,7.9c-0.1,0.2-0.5,1-1.1,2.2c-0.1,0.1-0.2,0.3-0.2,0.4c-0.1,0.1-0.2,0.3-0.3,0.5
				c-0.1,0.2-0.2,0.3-0.3,0.5c-4.3,7.4-16.2,24-38.4,29.1c0,0,0,0,0,0c-0.5,0.1-1,0.2-1.5,0.3c-3.6,0.7-7.5,1.2-11.6,1.2
				c-0.2,0-0.5,0-0.7,0c-9.1,0-16.9-2.1-23.4-5.2c-0.4-0.2-0.8-0.4-1.2-0.6c0,0,0,0,0,0c-0.4-0.2-0.8-0.4-1.2-0.6
				c-0.6-0.3-1.2-0.6-1.7-1c-16.2-9.4-23.8-24.9-24.7-26.8c0-0.1-0.1-0.1-0.1-0.1c-1.4-3,0-6.5,3-7.9c0.5-0.2,1-0.4,1.5-0.4
				c0.1,0,0.2,0,0.3,0c2.4-0.2,4.7,0.9,5.9,3.1C52.9,116,53,116.1,53,116.2z"/>
			<path class="st0" d="M137.7,116.6c0-0.1,0-0.1,0.1-0.1C137.7,116.5,137.7,116.6,137.7,116.6z"/>
			<path class="st1" d="M137.1,77.6c0,0.2,0,0.4,0,0.6c-0.3,6.3-5.5,11.3-11.9,11.3s-11.6-5-11.9-11.3c0-0.2,0-0.4,0-0.6
				c0-0.2,0-0.4,0-0.6c0.3-6.3,5.5-11.3,11.9-11.3s11.6,5,11.9,11.3C137.1,77.2,137.1,77.4,137.1,77.6z"/>
			<path class="st0" d="M137.7,116.6c-1.5,3.2-14.1,26.6-42.6,26.9C123.6,143.2,136.1,119.8,137.7,116.6z"/>
			<path class="st0" d="M113.3,77c0.3-6.3,5.5-11.3,11.9-11.3c6.4,0,11.6,5,11.9,11.3c-0.3-6.3-5.5-11.3-11.9-11.3
				S113.7,70.7,113.3,77z"/>
			<path class="st1" d="M77.5,77.6c0,0.2,0,0.4,0,0.6c-0.3,6.3-5.5,11.3-11.9,11.3c-6.4,0-11.7-5.2-11.9-11.6c0-0.1,0-0.2,0-0.3
				c0-0.1,0-0.2,0-0.3c0.2-6.4,5.5-11.6,11.9-11.6c6.4,0,11.6,5,11.9,11.3C77.5,77.2,77.5,77.4,77.5,77.6z"/>
			<path class="st0" d="M65.6,65.7c6.4,0,11.6,5,11.9,11.3C77.2,70.8,71.9,65.7,65.6,65.7c-6.4,0-11.7,5.2-11.9,11.6
				C53.8,70.9,59.1,65.7,65.6,65.7z"/>
		</g>
		<g>
		</g>
	</g>
</g>
</svg>
